<?xml version="1.0" encoding="utf-8"?>
<!-- Generator: Adobe Illustrator 24.2.3, SVG Export Plug-In . SVG Version: 6.00 Build 0)  -->
<svg version="1.1" xmlns="http://www.w3.org/2000/svg" xmlns:xlink="http://www.w3.org/1999/xlink" x="0px" y="0px"
	 viewBox="0 0 612 792" style="enable-background:new 0 0 612 792;" xml:space="preserve">
<style type="text/css">
	.st0{display:none;opacity:0.14;}
	.st1{display:inline;}
	.st2{fill:#FFFFFF;}
	.st3{display:none;}
	.st4{display:inline;fill:none;stroke:#000000;stroke-width:6;stroke-linecap:round;stroke-miterlimit:10;}
	.st5{fill:none;stroke:#000000;stroke-width:6;stroke-linecap:round;stroke-miterlimit:10;}
	.st6{display:inline;fill:none;stroke:#000000;stroke-width:6;stroke-miterlimit:10;}
	.st7{fill:none;stroke:#000000;stroke-width:7.3248;stroke-linecap:round;stroke-miterlimit:10;}
	.st8{display:none;fill:none;stroke:#000000;stroke-width:7.3248;stroke-linecap:round;stroke-miterlimit:10;}
	.st9{fill:none;stroke:#000000;stroke-width:7.3248;stroke-miterlimit:10;}
	.st10{fill:none;stroke:#000000;stroke-width:8.7146;stroke-linecap:round;stroke-miterlimit:10;}
</style>
<g id="Layer_1">
	<g class="st0">
		<g class="st1">
			<path class="st2" d="M585.6,367c0,111,0,222.1,0.1,333.1c0,2.9-0.6,3.5-3.5,3.5c-188.6-0.1-377.2-0.1-565.8,0
				c-2.9,0-3.5-0.6-3.5-3.5C13,478,13,256,12.9,33.9c0-2.8,0.6-3.5,3.5-3.5c188.6,0.1,377.2,0.1,565.8,0c2.8,0,3.5,0.6,3.5,3.5
				C585.6,144.9,585.6,256,585.6,367z M237,602c3.5-0.1,7.1-0.1,10.6-0.7c15.2-2.3,29.2-8,42.8-15c22-11.4,41.5-26.3,59.9-42.6
				c8.1-7.2,16-14.8,23.8-22.4c2.4-2.4,2.5-2.3,3.8,0.9c1.2,2.9,2.3,6,4.3,8.4c4.2,5.1,8.4,10.3,15.8,10.6c2.6,0.1,5.3-0.2,6.8-2.6
				c3.5-5.6,5.1-13.3,0.3-20c-1.2-1.6-3.3-2.1-4-4.2c2.1-0.3,4.2-0.6,6.4-0.9c0.1,0,0.3,0,0.4-0.1c2.8-1.1,4.6-0.1,6.5,2.1
				c14,15.5,30.3,28.4,46.1,41.9c2.9,2.5,6.4,4.1,8.7,7.3c0.9,1.2,2.5,1.4,3.7,0.2c1.1-1.1,0.9-2.3,0-3.4c-1.2-1.5-2.3-3.1-3.9-4.1
				c-7.3-4.7-13.4-10.8-20-16.3c-10.4-8.7-20.6-17.6-29.8-27.7c-2.3-2.5-2.2-2.5,0.6-4.3c4.1-2.6,7.8-5.6,10.3-9.9
				c2.5-4.5,2.9-9.7,4.8-14.4c0.4-1,0.1-2.1-0.7-2.8c-3-2.8-6-5.4-10.3-6.1c-2.1-0.3-5.2,0.9-5.9-0.8c-0.6-1.5,2.5-3.2,3.3-5.1
				c0.9-2.2,2.2-2.3,4.2-1.6c10.7,4,20.6,0.4,30-4c10.1-4.8,13.8-17.2,12.2-27.3c-0.6-3.8-3.7-7.3-6.8-7.1
				c-4.3,0.2-8.7,0.6-11.7,4.4c-0.7,0.9-1.6,1.7-2.5,2.4c-0.8,0.6-1.8,1.6-2.7,1.1c-1.1-0.8,0.1-1.8,0.5-2.6
				c0.8-1.6,1.6-3.3,2.8-4.5c5.2-4.8,8.7-10.8,13.1-16.2c2.8-3.4,2.7-3.6,6.1-0.8c11.2,9.5,24,10.1,37.3,6.2
				c8-2.4,9.1-10.4,2.7-15.9c-2.4-2.1-5.2-3.6-8.5-4c-1.5-0.2-2.6-0.7-1.6-2.4c3.6-5.9,2.4-12.3,1.7-18.5c-0.5-4.5-3.1-7.5-7.7-8.3
				c-4.6-0.8-8.8-0.2-12.3,3.2c-2.1,2.1-3.8,4.4-5.1,7c-0.7,1.3-1.3,1.1-1.7-0.1c-0.7-2-1.3-4.1-1.8-6.2c-0.9-3.6-2.7-6.5-5.9-8.5
				c-2.8-1.8-5-0.8-5.3,2.5c-0.2,2.1-0.1,4.3,0.4,6.4c0.6,3,1.1,6,1.7,9c0.3,1.4-0.1,2.3-1.7,2c-4.3-0.9-7.3,1.8-10.2,4.1
				c-4.9,4-4.9,9-0.6,13.6c2.3,2.5,5.2,4.1,8.5,4.8c1.9,0.4,2,1.1,1,2.5c-1.6,2.1-3.2,4.3-4.7,6.4c-1,1.4-1.5,2.1-2.8,0.1
				c-1.8-2.6-4.2-2.7-6.4-0.5c-1.8,1.8-3.5,3.6-5,5.7c-2.5,3.4-4.6,7-6.2,10.9c-0.2,0.5-0.5,1.3-1.3,1c-0.3-0.1-0.4-0.8-0.5-1.3
				c-0.8-4-1.6-8-3.1-11.7c-2.2-5.6-5.5-10.3-10.9-13.2c-5.8-3.2-11.9-0.8-13.1,5.4c-1.5,7.7-1.1,15.4,3.4,22.3
				c2.7,4.3,5.2,8.7,7.7,13.1c0.7,1.3,1.2,2.8,1.7,4.2c0.2,0.6,0.5,1.5-0.1,1.8c-1,0.4-1.2-0.7-1.5-1.3c-3.2-6.2-8.2-10.9-13.2-15.6
				c-2.9-2.7-6.4-3.4-10.2-2.9c-2.9,0.3-4.1,2.3-3.2,5.1c0.5,1.5,1.5,2.7,2.6,3.7c5.8,4.9,10.9,10.5,15.9,16.2
				c2.3,2.7,4.6,5.8,8.7,6.4c1.7,0.3,1.1,1.4,0.4,2.2c-2.5,3-5,6-7.6,9c-0.8,1-2,1.5-3.2,2c-1.9,0.9-3,0.7-2.4-1.8
				c0.5-2,0.6-4,0.5-6c-0.1-1.7-0.2-3.4-2-4.2c-1.8-0.8-2.8,0.6-3.7,1.8c-1.3,1.7-2,1-2.7-0.5c-0.4-0.9-0.9-1.8-1.5-2.7
				c-3-4.8-7.3-6.8-12.6-5.2c-2.5,0.7-3.6,0.1-5-1.8c-6.5-9.1-12.8-18.3-18.8-27.6c-18.6-28.8-34.1-59.2-44.8-92
				c-8.7-26.8-13.5-54.3-14.6-82.4c-0.1-2.6,0.3-4.9,1.6-7.3c8.5-16,16.9-32,24.1-48.7c6.8-15.9,13.4-32,16.5-49.2
				c1.3-7,2-14.1-0.2-21c-2.1-6.8-7-8.1-12.4-3.4c-2.9,2.5-5.1,5.6-7.2,8.8c-13.3,19.9-20.4,42-24.2,65.4c-2.4,15-3.5,30.2-3.1,45.4
				c0.1,3.2-0.7,5.9-2.2,8.6c-6.1,10.7-12.1,21.4-18.2,32.1c-22,38.3-44.2,76.6-64.2,116c-14,27.5-26,55.8-32.9,86
				c-4.4,19.4-6.6,39-2.6,58.7c3.4,16.7,11,31,25.1,41.2C209.3,599,222.7,602.1,237,602z"/>
			<path d="M237,602c-14.3,0.1-27.7-3-39.4-11.5c-14.1-10.2-21.7-24.5-25.1-41.2c-4-19.8-1.8-39.3,2.6-58.7
				c6.9-30.2,18.9-58.5,32.9-86c20-39.4,42.2-77.7,64.2-116c6.1-10.7,12.1-21.4,18.2-32.1c1.6-2.7,2.3-5.5,2.2-8.6
				c-0.4-15.2,0.7-30.4,3.1-45.4c3.8-23.3,10.9-45.5,24.2-65.4c2.1-3.2,4.3-6.3,7.2-8.8c5.4-4.7,10.2-3.4,12.4,3.4
				c2.2,7,1.5,14,0.2,21c-3.1,17.2-9.7,33.3-16.5,49.2c-7.1,16.7-15.5,32.7-24.1,48.7c-1.3,2.4-1.7,4.7-1.6,7.3
				c1.1,28.1,5.9,55.6,14.6,82.4c10.6,32.8,26.1,63.1,44.8,92c6.1,9.4,12.3,18.6,18.8,27.6c1.4,1.9,2.5,2.6,5,1.8
				c5.4-1.6,9.6,0.4,12.6,5.2c0.5,0.9,1,1.7,1.5,2.7c0.7,1.4,1.4,2.1,2.7,0.5c0.9-1.2,1.9-2.6,3.7-1.8c1.8,0.8,1.9,2.5,2,4.2
				c0.1,2-0.1,4.1-0.5,6c-0.6,2.5,0.4,2.7,2.4,1.8c1.2-0.5,2.3-1,3.2-2c2.5-3,5.1-6,7.6-9c0.7-0.9,1.3-1.9-0.4-2.2
				c-4-0.7-6.3-3.7-8.7-6.4c-5-5.7-10.2-11.3-15.9-16.2c-1.2-1-2.1-2.2-2.6-3.7c-1-2.8,0.2-4.8,3.2-5.1c3.8-0.4,7.3,0.2,10.2,2.9
				c5,4.7,10,9.4,13.2,15.6c0.3,0.6,0.5,1.7,1.5,1.3c0.5-0.2,0.3-1.2,0.1-1.8c-0.5-1.4-1-2.9-1.7-4.2c-2.5-4.4-5-8.8-7.7-13.1
				c-4.5-7-4.9-14.6-3.4-22.3c1.2-6.2,7.3-8.6,13.1-5.4c5.4,2.9,8.7,7.6,10.9,13.2c1.5,3.8,2.3,7.8,3.1,11.7
				c0.1,0.5,0.2,1.2,0.5,1.3c0.8,0.3,1.1-0.5,1.3-1c1.6-3.9,3.7-7.4,6.2-10.9c1.5-2.1,3.2-3.9,5-5.7c2.2-2.2,4.6-2.1,6.4,0.5
				c1.4,2,1.9,1.3,2.8-0.1c1.5-2.2,3.1-4.3,4.7-6.4c1.1-1.4,0.9-2.1-1-2.5c-3.3-0.7-6.1-2.3-8.5-4.8c-4.3-4.6-4.2-9.6,0.6-13.6
				c2.8-2.3,5.9-5,10.2-4.1c1.6,0.3,2-0.6,1.7-2c-0.6-3-1.1-6-1.7-9c-0.4-2.1-0.6-4.3-0.4-6.4c0.3-3.3,2.5-4.3,5.3-2.5
				c3.2,2,5,4.9,5.9,8.5c0.5,2.1,1.2,4.1,1.8,6.2c0.4,1.2,1,1.4,1.7,0.1c1.4-2.6,3.1-4.9,5.1-7c3.5-3.5,7.7-4,12.3-3.2
				c4.6,0.8,7.1,3.8,7.7,8.3c0.7,6.2,1.9,12.6-1.7,18.5c-1.1,1.7,0.1,2.2,1.6,2.4c3.2,0.4,6,1.9,8.5,4c6.4,5.5,5.3,13.5-2.7,15.9
				c-13.2,3.9-26.1,3.3-37.3-6.2c-3.4-2.9-3.3-2.7-6.1,0.8c-4.4,5.4-7.9,11.4-13.1,16.2c-1.3,1.2-2,2.9-2.8,4.5
				c-0.4,0.8-1.6,1.8-0.5,2.6c0.8,0.6,1.9-0.5,2.7-1.1c0.9-0.7,1.8-1.5,2.5-2.4c3.1-3.8,7.5-4.1,11.7-4.4c3.1-0.2,6.2,3.3,6.8,7.1
				c1.5,10.1-2.1,22.5-12.2,27.3c-9.4,4.4-19.3,8-30,4c-2-0.7-3.3-0.6-4.2,1.6c-0.8,2-4,3.6-3.3,5.1c0.7,1.7,3.8,0.5,5.9,0.8
				c4.3,0.7,7.3,3.3,10.3,6.1c0.8,0.7,1.1,1.9,0.7,2.8c-1.9,4.7-2.3,9.9-4.8,14.4c-2.5,4.4-6.2,7.3-10.3,9.9
				c-2.8,1.8-2.8,1.8-0.6,4.3c9.2,10,19.4,18.9,29.8,27.7c6.6,5.5,12.8,11.6,20,16.3c1.6,1.1,2.7,2.6,3.9,4.1c0.9,1.1,1.1,2.4,0,3.4
				c-1.2,1.2-2.8,1-3.7-0.2c-2.3-3.2-5.8-4.8-8.7-7.3c-15.8-13.5-32.1-26.4-46.1-41.9c-2-2.2-3.8-3.2-6.5-2.1c-0.1,0-0.2,0-0.4,0.1
				c-2.1,0.3-4.2,0.6-6.4,0.9c0.6,2,2.8,2.6,4,4.2c4.8,6.7,3.2,14.5-0.3,20c-1.5,2.4-4.1,2.7-6.8,2.6c-7.5-0.3-11.6-5.5-15.8-10.6
				c-2-2.5-3.1-5.5-4.3-8.4c-1.3-3.2-1.4-3.2-3.8-0.9c-7.8,7.6-15.7,15.2-23.8,22.4c-18.4,16.4-37.9,31.3-59.9,42.6
				c-13.6,7-27.6,12.8-42.8,15C244.1,601.8,240.6,601.9,237,602z M175.7,527.6c-0.3,12,1.4,24.2,6.5,35.6
				c7.2,16.1,18.9,27,36.2,31.5c17.8,4.7,34.9,1.9,51.7-4.7c18.7-7.3,35.6-17.5,51.7-29.4c10.6-7.9,20.6-16.4,30.4-25.3
				c1-0.9,2.9-1.8,2.3-3.2c-1.6-3.9-0.5-8-1.2-12c-1.2-6.8-0.3-13.6,1.1-20.4c0.5-2.5,1.7-4.5,4.5-5c2.7-0.4,4.3,1.2,5.5,3.3
				c0.8,1.3,1.5,2.7,2,4.1c1.9,5.1,2.5,10.3,1.7,15.7c-0.1,0.6-0.6,1.3,0.1,1.7c0.7,0.3,1.1-0.4,1.5-0.8c1.1-1.1,2-2.4,3.3-3.2
				c4.3-2.6,4.3-7.6,6.7-11.3c0.4-0.6,0.1-1.2-0.2-1.8c-4.9-10-4.2-21-5-31.6c-0.2-3-0.7-5.5-2.5-8c-23-32-43.5-65.3-57.7-102.3
				c-8.5-22.2-14.9-44.9-18.4-68.4c-1.3-8.6-2.3-17.3-2.4-26.1c0-0.8,0-1.8-0.7-2c-0.9-0.2-1.1,0.9-1.5,1.5
				c-0.3,0.4-0.5,0.9-0.7,1.3c-23.1,40.6-46.7,80.9-68.7,122.2c-14.9,28.1-28.7,56.7-37.7,87.4C179.1,493,175.6,509.8,175.7,527.6z
				 M297.6,236.7c0,1.3,0,2.5,0,3.8c0,0.5,0.1,1.4,0.2,1.4c0.8,0.1,0.9-0.7,1.2-1.2c5.2-10.1,10.5-20.2,15.3-30.6
				c8.1-17.8,15.9-35.6,20.1-54.8c1.4-6.3,2.7-12.7,1.3-19.2c-0.4-1.9-0.1-4.6-2.5-5.1c-2.2-0.5-3.5,1.8-4.8,3.3
				c-6.5,7.9-11.3,16.8-15.3,26.1C302.3,184.8,298.7,210.5,297.6,236.7z M463.4,442.1c-0.1-1.5-0.1-3-0.4-4.5
				c-0.3-1.7-1.4-3.1-3.4-2.9c-1.9,0.2-4.1,0.1-5.4,1.5c-3.2,3.5-7.7,5.3-10.9,8.7c-3.6,3.7-7.8,6.7-11.4,10.5
				c-2,2.2-3.7,5.1-7.1,6.1c-1.4,0.4-1.2,1.5,0.2,2c4,1.3,7.9,2.5,12.2,1.8c3.6-0.6,7.1-2,10.6-2.6
				C457.5,460.8,463.7,450.3,463.4,442.1z M494.1,387.2c0.1-3,0-5.5-0.6-8c-0.6-2.4-2.2-3.8-4.5-3.9c-2.8-0.2-5.6,0.1-7.6,2.4
				c-5.2,6-8.3,12.9-8.4,20.9c0,1.3,0.3,2.5-0.4,3.7c-1,1.8,0.1,2.2,1.6,2.4c3,0.3,6.1,0.4,9.1,0c2.6-0.4,4.8-1.7,6.2-4
				C492.2,396.4,495,392.1,494.1,387.2z M429.8,485.1c0.1-0.9-0.6-1.3-1.1-1.9c-4.6-4.4-13.9-4.2-18.4,0.4c-2.5,2.5-4.8,5.2-7.2,7.8
				c-1,1.1-1.4,2-0.3,3.2c3.2,3.6,6.3,7.3,9.4,10.9c0.9,1,1.8,1.1,3.1,0.7C422.1,504.1,430.2,492.5,429.8,485.1z M425.3,437.8
				c-0.3-3.4-0.5-6.8-1-10.2c-0.9-5.9-3.9-10.7-8.6-14.3c-1.7-1.3-3.5-2.1-5.6-1c-2.1,1.1-1.9,3.1-1.7,5c0.5,5.9,1.3,11.6,5.2,16.4
				c0.8,1,1.2,2.2,1.5,3.4c1.4,4.9,3.5,9.5,5.5,14.1c0.2,0.4,0.1,1.1,0.7,1.2c0.8,0.1,0.9-0.7,1.3-1.2
				C425.3,447.2,425.9,442.6,425.3,437.8z M403.8,526.6c-0.2-3-1.7-5.9-4.6-8.2c-3.3-2.6-7.2-4-10.8-6c-3.8-2.1-3.6-2.3-6,1.6
				c-1.2,2-1.3,3.7-0.4,5.7c1.2,2.5,2.1,5.3,3.7,7.5c3.1,4.2,6.3,8.6,12.2,9.3c2.1,0.3,3.4-0.4,4.2-2.3
				C402.9,531.8,403.8,529.6,403.8,526.6z M489.9,417.4c1.8,0.2,4.4-0.6,7.1-0.8c1.4-0.1,2.8-0.4,4.1-0.7c1.4-0.3,2.6-1,3.7-1.9
				c1.3-1,1.6-2.2,1-3.7c-1.4-3.3-4.2-5-7.4-6c-2.7-0.8-5.4-1.4-7.4,1.7c-0.6,0.9-1.8,1.4-2.8,1.8c-6.5,2.7-13,2.5-19.6-0.1
				c-0.4-0.2-1-0.8-1.3-0.3c-0.4,0.5,0.3,0.8,0.6,1.1C473.8,414,480.8,417.3,489.9,417.4z M379.3,475.8c0.4,4.7,0.7,9.3,1.1,13.9
				c0.3,3.1,1.2,6.2,2.3,9.2c0.6,1.6,1.4,2,3.2,1.5c3.6-1,5.6-3.7,7.6-6.4c0.9-1.2,0.2-2.4-0.6-3.4c-4-5.2-8-10.4-12.1-15.5
				c-0.4-0.5-0.7-1.3-1.4-0.9C378.8,474.4,379.1,475.2,379.3,475.8z M459.2,404.1c3.3,1.2,5-3,8.1-3.7c0.2,0,0.5-0.3,0.5-0.4
				c-0.3-2.2-1.9-3.8-2.7-5.7c-1.6-3.7-4.8-4.1-7.9-3.8c-3.3,0.4-6,2.4-7.3,5.8c-0.3,0.9-0.4,1.7,0,2.5
				C451.1,401.4,455.8,404.2,459.2,404.1z M397.9,509.5c3.2-0.2,5.6,0.1,8-0.5c1.3-0.3,1.8-0.9,0.8-2.1c-2.5-2.9-4.9-5.8-7.4-8.7
				c-0.7-0.9-1.4-1.2-1.9,0.1c-1.1,2.6-3.3,4-5.6,5.4c-1,0.6-2.4,1.4-2.1,2.8c0.3,1.5,1.7,2.3,3.1,2.5
				C394.6,509.4,396.7,509.4,397.9,509.5z M363.5,512.8c0.1-3.2-0.7-6.6-2-9.9c-0.4-1-0.7-2.5-2-2.4c-1.1,0.1-0.9,1.6-1.2,2.5
				c-2,6.9-1.4,14-1.1,21c0,0.5,0,1.1,0.7,1.1c0.4,0,1-0.3,1.3-0.6C362.3,521.3,363.8,517.6,363.5,512.8z M384.1,465.8
				c-0.9,0-1.8,0-2.4,0.8c-0.5,0.6,0,1.2,0.4,1.7c3,3.9,6,7.9,9,11.8c0.3,0.4,0.8,0.9,1.2,0.8c0.8-0.1,0.7-0.9,0.7-1.5
				c-0.4-4.5-1.8-8.7-5-12C386.9,466.3,385.5,465.8,384.1,465.8z M432,447.3c0.2-0.3,0.6-0.8,1-1.3c4.6-7.1,8.6-14.6,12.5-22.1
				c0.3-0.6,0.6-2,0.4-2.1c-1.1-0.6-1.5,0.6-2,1.2c-5.7,6.9-8.7,15.3-12.7,23.2C431.1,446.6,430.6,447.2,432,447.3z M395.3,440.4
				c-0.9,0.1-1,0.7-0.5,1.2c0.8,0.9,1.7,1.9,2.7,2.6c3.7,2.7,6.8,5.9,9.4,9.7c0.9,1.3,2.2,2.4,3.3,3.6c0.3,0.3,1.1,0.8,1.1,0.8
				c0.5-0.5-0.1-0.9-0.3-1.2c-3.1-6.1-7.8-10.7-12.8-15.2C397.5,441.1,396.5,440.5,395.3,440.4z M468.5,386.6c-1.2-4.1-2.6-8.5-4-13
				c-0.1-0.3-0.6-0.7-0.7-0.7c-0.6,0.2-0.4,0.8-0.3,1.2c0.5,2.7,1,5.4,1.5,8.2c0.3,1.9,0.7,3.7,1.8,5.3c0.3,0.4,0.8,0.9,1.1,0.9
				C468.7,388.4,468.2,387.6,468.5,386.6z"/>
			<path class="st2" d="M175.7,527.6c0-17.8,3.5-34.6,8.3-51.2c9-30.7,22.8-59.3,37.7-87.4c21.9-41.3,45.6-81.6,68.7-122.2
				c0.3-0.4,0.5-0.9,0.7-1.3c0.4-0.6,0.6-1.7,1.5-1.5c0.7,0.2,0.7,1.3,0.7,2c0.2,8.8,1.2,17.4,2.4,26.1c3.5,23.5,9.9,46.2,18.4,68.4
				c14.2,36.9,34.8,70.3,57.7,102.3c1.8,2.5,2.3,5,2.5,8c0.8,10.7,0.2,21.6,5,31.6c0.3,0.6,0.6,1.2,0.2,1.8
				c-2.4,3.7-2.5,8.7-6.7,11.3c-1.3,0.8-2.2,2.1-3.3,3.2c-0.4,0.4-0.9,1.2-1.5,0.8c-0.7-0.3-0.2-1.1-0.1-1.7
				c0.9-5.4,0.2-10.6-1.7-15.7c-0.5-1.4-1.2-2.8-2-4.1c-1.2-2.1-2.7-3.7-5.5-3.3c-2.8,0.4-4,2.5-4.5,5c-1.4,6.7-2.3,13.5-1.1,20.4
				c0.7,4-0.4,8.1,1.2,12c0.5,1.4-1.4,2.3-2.3,3.2c-9.7,8.9-19.8,17.4-30.4,25.3c-16,11.9-33,22.1-51.7,29.4
				c-16.8,6.6-33.9,9.3-51.7,4.7c-17.2-4.5-29-15.5-36.2-31.5C177.1,551.7,175.4,539.6,175.7,527.6z"/>
			<path class="st2" d="M297.6,236.7c1.1-26.2,4.7-51.9,15.3-76.2c4.1-9.3,8.8-18.2,15.3-26.1c1.3-1.5,2.6-3.7,4.8-3.3
				c2.4,0.5,2.1,3.2,2.5,5.1c1.4,6.5,0.1,12.9-1.3,19.2c-4.2,19.2-12,37-20.1,54.8c-4.7,10.4-10,20.5-15.3,30.6
				c-0.3,0.5-0.3,1.3-1.2,1.2c-0.1,0-0.2-0.9-0.2-1.4C297.6,239.3,297.6,238,297.6,236.7z"/>
			<path class="st2" d="M463.4,442.1c0.3,8.2-5.8,18.7-15.4,20.4c-3.5,0.6-7,2-10.6,2.6c-4.3,0.8-8.3-0.5-12.2-1.8
				c-1.5-0.5-1.6-1.6-0.2-2c3.4-0.9,5-3.9,7.1-6.1c3.5-3.8,7.8-6.8,11.4-10.5c3.2-3.3,7.7-5.1,10.9-8.7c1.2-1.4,3.5-1.3,5.4-1.5
				c2-0.2,3,1.2,3.4,2.9C463.3,439,463.3,440.6,463.4,442.1z"/>
			<path class="st2" d="M494.1,387.2c0.9,5-2,9.2-4.7,13.5c-1.4,2.3-3.6,3.6-6.2,4c-3,0.5-6,0.3-9.1,0c-1.5-0.1-2.5-0.6-1.6-2.4
				c0.6-1.2,0.4-2.5,0.4-3.7c0.1-8.1,3.2-14.9,8.4-20.9c2-2.3,4.8-2.7,7.6-2.4c2.3,0.2,3.9,1.5,4.5,3.9
				C494.1,381.6,494.2,384.1,494.1,387.2z"/>
			<path class="st2" d="M429.8,485.1c0.3,7.4-7.7,19-14.6,21.2c-1.2,0.4-2.2,0.3-3.1-0.7c-3.1-3.7-6.2-7.3-9.4-10.9
				c-1.1-1.3-0.7-2.2,0.3-3.2c2.4-2.6,4.7-5.3,7.2-7.8c4.5-4.6,13.8-4.8,18.4-0.4C429.3,483.8,429.9,484.2,429.8,485.1z"/>
			<path class="st2" d="M425.3,437.8c0.5,4.8,0,9.4-2.7,13.5c-0.3,0.5-0.5,1.3-1.3,1.2c-0.6-0.1-0.5-0.8-0.7-1.2
				c-2-4.6-4.2-9.2-5.5-14.1c-0.3-1.2-0.8-2.5-1.5-3.4c-3.8-4.8-4.7-10.6-5.2-16.4c-0.2-1.9-0.4-3.9,1.7-5c2.1-1.1,4-0.3,5.6,1
				c4.7,3.7,7.6,8.4,8.6,14.3C424.8,431,425,434.4,425.3,437.8z"/>
			<path class="st2" d="M403.8,526.6c0,3-0.8,5.3-1.7,7.5c-0.7,2-2.1,2.6-4.2,2.3c-5.9-0.7-9.1-5.1-12.2-9.3
				c-1.6-2.2-2.5-4.9-3.7-7.5c-0.9-1.9-0.8-3.7,0.4-5.7c2.3-3.9,2.2-3.8,6-1.6c3.6,2,7.5,3.4,10.8,6
				C402.1,520.7,403.5,523.5,403.8,526.6z"/>
			<path class="st2" d="M489.9,417.4c-9.2-0.1-16.1-3.4-22.1-8.9c-0.3-0.3-1-0.6-0.6-1.1c0.4-0.4,0.9,0.2,1.3,0.3
				c6.5,2.6,13,2.8,19.6,0.1c1-0.4,2.3-0.9,2.8-1.8c2-3.1,4.7-2.5,7.4-1.7c3.2,1,6,2.7,7.4,6c0.6,1.5,0.4,2.7-1,3.7
				c-1.1,0.8-2.3,1.6-3.7,1.9c-1.4,0.3-2.7,0.6-4.1,0.7C494.3,416.8,491.7,417.6,489.9,417.4z"/>
			<path class="st2" d="M379.3,475.8c-0.1-0.6-0.5-1.4,0.1-1.7c0.7-0.4,1.1,0.5,1.4,0.9c4,5.2,8,10.4,12.1,15.5
				c0.8,1.1,1.5,2.3,0.6,3.4c-2,2.7-4.1,5.4-7.6,6.4c-1.7,0.5-2.6,0.1-3.2-1.5c-1-3-2-6-2.3-9.2C380,485.1,379.7,480.5,379.3,475.8z
				"/>
			<path class="st2" d="M459.2,404.1c-3.5,0.1-8.1-2.7-9.3-5.2c-0.4-0.9-0.3-1.7,0-2.5c1.3-3.4,4-5.4,7.3-5.8c3-0.3,6.3,0.1,7.9,3.8
				c0.8,1.9,2.4,3.5,2.7,5.7c0,0.1-0.3,0.4-0.5,0.4C464.2,401.1,462.5,405.3,459.2,404.1z"/>
			<path class="st2" d="M397.9,509.5c-1.2-0.1-3.3,0-5.2-0.4c-1.4-0.2-2.8-1-3.1-2.5c-0.3-1.5,1.1-2.2,2.1-2.8
				c2.3-1.4,4.5-2.9,5.6-5.4c0.6-1.3,1.2-0.9,1.9-0.1c2.4,2.9,4.9,5.8,7.4,8.7c1,1.2,0.5,1.7-0.8,2.1
				C403.5,509.6,401.1,509.3,397.9,509.5z"/>
			<path class="st2" d="M363.5,512.8c0.2,4.8-1.2,8.5-4.3,11.7c-0.3,0.3-0.9,0.6-1.3,0.6c-0.6,0-0.7-0.6-0.7-1.1
				c-0.2-7-0.9-14.1,1.1-21c0.3-0.9,0.1-2.4,1.2-2.5c1.3-0.1,1.6,1.4,2,2.4C362.8,506.2,363.6,509.6,363.5,512.8z"/>
			<path class="st2" d="M384.1,465.8c1.5,0,2.8,0.5,3.8,1.5c3.2,3.3,4.6,7.5,5,12c0,0.6,0.1,1.4-0.7,1.5c-0.3,0.1-0.9-0.4-1.2-0.8
				c-3-3.9-6-7.8-9-11.8c-0.4-0.5-0.9-1-0.4-1.7C382.3,465.8,383.2,465.8,384.1,465.8z"/>
			<path class="st2" d="M432,447.3c-1.4-0.2-0.9-0.7-0.7-1.1c4-7.9,7-16.3,12.7-23.2c0.5-0.6,0.9-1.7,2-1.2c0.2,0.1-0.1,1.4-0.4,2.1
				c-3.9,7.5-7.9,15-12.5,22.1C432.6,446.5,432.2,447,432,447.3z"/>
			<path class="st2" d="M395.3,440.4c1.2,0.1,2.2,0.7,3.1,1.5c5,4.5,9.7,9.2,12.8,15.2c0.2,0.4,0.8,0.8,0.3,1.2
				c-0.1,0.1-0.8-0.4-1.1-0.8c-1.1-1.2-2.4-2.3-3.3-3.6c-2.6-3.8-5.8-7-9.4-9.7c-1-0.7-1.9-1.7-2.7-2.6
				C394.3,441.1,394.4,440.5,395.3,440.4z"/>
			<path class="st2" d="M468.5,386.6c-0.2,1,0.3,1.8-0.7,1.9c-0.3,0-0.8-0.5-1.1-0.9c-1.1-1.6-1.5-3.4-1.8-5.3
				c-0.5-2.7-1-5.4-1.5-8.2c-0.1-0.4-0.3-1,0.3-1.2c0.1-0.1,0.6,0.4,0.7,0.7C465.9,378.1,467.2,382.5,468.5,386.6z"/>
		</g>
	</g>
</g>
<g id="Layer_7" class="st3">
	<path class="st4" d="M302.4,574.7c0,0,1.4-10,3.5-18.4c0.9-3.4,1.9-6.5,3-8.6"/>
	<line class="st4" x1="303" y1="547.9" x2="306.8" y2="551"/>
	<line class="st4" x1="306.6" y1="560.6" x2="311.8" y2="559.2"/>
	<path class="st4" d="M450.1,428c0,0,9.4-9.4,15.3-2.3"/>
</g>
<g id="Layer_2" class="st3">
	<path class="st5" d="M507.4,684.3c0,0-229.9-157.1-171.3-392.6c8.4-33.1,25.6-49.7,31.7-45.7c4.3,2.5,8.7,19.5-4.3,55.5
		c-19.8,53.4-99.5,181.4-127,241.3c-37.1,77.3-42.5,138-1,163.6c106.2,51.8,236.9-145.5,265.2-182.8"/>
	<path class="st4" d="M406.6,482.9c26.7-32.1,52.4-66.6,61.5-78.6"/>
	<path class="st4" d="M377.6,470.7c-54.3-69.1-105.3-172.5-74.1-298.3c8.4-33.1,25.6-49.7,31.7-45.7c4.3,2.5,8.7,19.5-4.3,55.5
		c-19.8,53.4-99.5,181.4-127,241.3c-37.1,77.3-42.5,138-1,163.6c58.6,28.6,124.8-18.7,177-73.2"/>
	<path class="st4" d="M474.8,565c0,0-28.2-19.3-62.4-54.5"/>
</g>
<g id="Layer_6" class="st3">
	<path class="st4" d="M336.2,554.1c0,0,6.6,3.1,9.9,1.5c3.3-1.6,5-3.3,5-3.3"/>
	<path class="st4" d="M352.9,561c0,0-5.7-4-8.4-5.2"/>
</g>
<g id="Layer_3" class="st3">
	<g class="st1">
		<path d="M495.4,403.9c3.7,0.7,7.6,2.2,9.5,5.6c0.7,1.3,1.1,2.2,1.2,2.8c-1,0.5-3,1-4.3,1.4c-1.2,0.4-2.5,0.7-3.8,1.2
			c-0.7,0.3-2.4,0.7-5.4,0.7c-6.5,0-13.7-1.9-18.3-4.7c1,0,2.5,0,4.7,0.2c0.6,0,1.2,0.1,1.8,0.1C488.5,411.1,493,407,495.4,403.9
			 M492.5,397.5c-0.1,0.2-0.3,0.5-0.4,0.7c-2.2,3.6-5.3,6.9-11.3,6.9c-0.4,0-0.9,0-1.3-0.1c-6.8-0.5-7.3,0.1-7.9-0.8
			c-0.5-0.9,0.3-1.5,0.4-4.2c-10,3-11.7,6.1-4.7,13c5.7,5.5,16.8,8.5,25.3,8.5c2.8,0,5.3-0.3,7.3-1c7.9-2.7,16.4-2.8,10.2-14
			C506.8,400.5,499.9,398,492.5,397.5L492.5,397.5z"/>
	</g>
	<g class="st1">
		<path d="M488.3,375.1c3.4,0,6.5,0.8,6.7,8.6c0.2,7.7-0.5,10.3-2.5,13.7c-0.1,0.2-0.3,0.5-0.4,0.7c-2.2,3.6-5.3,6.9-11.3,6.9
			c-0.4,0-0.9,0-1.3-0.1c-6.8-0.5-7.3,0.1-7.9-0.8c-0.5-0.9,0.3-1.5,0.4-4.2c0-0.2,0-0.4,0-0.5c0-3.2,2.1-12,6.5-18.1
			c4.4-6.1,9.3-6.3,9.3-6.3C487.9,375.1,488.1,375.1,488.3,375.1 M488.3,369.1c-0.2,0-0.4,0-0.6,0c0,0-0.1,0-0.1,0
			c-0.8,0-7.9,0.5-13.9,8.8c-5.2,7.2-7.6,17.2-7.6,21.7c0,0.1,0,0.2,0,0.2c0,0,0,0.1,0,0.1c0,0.7-0.1,1-0.2,1.5
			c-0.3,1-0.9,3.4,0.6,6c0,0,0,0,0,0c2,3.4,5.4,3.5,7.2,3.5c1.1,0,2.6,0,5.3,0.2c0.6,0,1.2,0.1,1.8,0.1c10.4,0,14.9-7.4,16.4-9.8
			c0.1-0.2,0.2-0.3,0.3-0.5l0.1-0.2c0,0,0,0,0-0.1c2.9-4.8,3.6-8.6,3.4-17C500.7,371.6,493.9,369.1,488.3,369.1L488.3,369.1z"/>
	</g>
	<g class="st1">
		<path d="M463.1,372.1c0.1,0,0.3,0.3,0.7,0.8c4.4,4.8,4,11.5,3.8,17.2c-1.3-0.5-4.9-17.5-4.7-17.8
			C463.1,372.2,463.1,372.1,463.1,372.1 M463.1,366.1c-2.4,0-4.7,1.5-5.7,3.8c0,0,0,0,0,0.1c-0.7,1.7-0.9,2.2,1.5,12.5
			c2.1,9,3.2,11.8,6.4,13.1c0.7,0.3,1.5,0.5,2.3,0.5c1.1,0,2.3-0.3,3.3-1c1.7-1.1,2.7-2.9,2.7-4.9l0-0.9c0.2-5.9,0.4-14.1-5.4-20.4
			c-0.1-0.1-0.1-0.1-0.2-0.2C467.6,368,466,366.1,463.1,366.1L463.1,366.1z"/>
	</g>
	<g class="st1">
		<path d="M454,391c1,0,1.9,0.2,2.8,0.6c3,1.4,11.8,5.3,5.7,10.2c-3.6,2.5-5.6,3.3-7.3,3.3c-1.3,0-2.6-0.5-4.4-1.2
			c-3.1-1.1-6.7-3.2-3.9-8.1C448.8,392.4,451.5,391,454,391 M454,385L454,385c-5,0-9.5,2.9-12.4,7.9c-2.4,4.1-2,7.5-1.3,9.5
			c1.7,4.8,6.7,6.6,8.3,7.2l0.5,0.2c1.9,0.7,3.7,1.4,6,1.4c3.6,0,6.6-1.6,10.7-4.4l0.2-0.1l0.2-0.2c4.3-3.5,4.5-7.3,4.3-9.2
			c-0.8-6.3-7.8-9.5-11.1-11.1l-0.1,0C457.6,385.4,455.8,385,454,385L454,385z"/>
	</g>
</g>
<g id="Layer_4" class="st3">
	<path class="st6" d="M426,462.9c0-1.1,21.4-16,25.8-23.3s12.9-8.2,14.3-3.4c1.5,4.8,6.7,16.3-6.1,24.8c-9.5,5.7-13.2,8.5-23.9,7.2
		C425.4,467,425.9,464,426,462.9z"/>
	<g class="st1">
		<path d="M440.7,417.7c0.3,0,0.6,0.2,0.8,0.6c2.2,3.4-0.7,7.8-2.1,11.4c-1.4,3.6-6.3,17.5-8.1,19.1c-1.5,1.3-4.1,3.3-5.1,3.3
			c-0.2,0-0.3-0.1-0.3-0.2c-0.4-0.9,6.9-17.9,7.9-21C434.7,428.2,438.3,417.7,440.7,417.7 M440.7,411.7L440.7,411.7
			c-5,0-8.3,4.5-12.6,17.3c-0.3,0.9-1.5,3.8-2.6,6.7c-1.2,3-2.6,6.4-3.6,9.1c-1.8,4.6-2.6,6.9-1.4,9.6c1,2.3,3.3,3.7,5.8,3.7
			c1.1,0,3.6,0,9-4.8c1.9-1.7,3.5-4.8,8.8-18.9c0.4-1,0.7-1.9,0.9-2.5c0.2-0.6,0.5-1.3,0.8-2c1.6-3.5,4.3-9.5,0.7-14.9
			C445.2,412.8,443,411.7,440.7,411.7L440.7,411.7z"/>
	</g>
	<g class="st1">
		<path d="M394,437.4c1.7,0,3.4,0.6,4.6,1.6c2.7,2.2,15,13.7,17.4,20.5c1.6,4.7,1.9,5.1,1.7,5.1c0,0-0.1,0-0.1,0
			c-0.1,0-0.2,0-0.2,0.2c-0.1,0.2-0.3,0.4-0.5,0.4c-2.1,0-8.7-8.9-12.5-12.3c-4.2-3.8-15.7-9.4-14.7-12.8
			C390.3,438.2,392.1,437.4,394,437.4 M394,431.4L394,431.4c-4.8,0-8.7,2.7-10,6.8c-1.1,3.5,0.4,6.9,4.2,10.2c2,1.7,4.5,3.4,6.9,5
			c2.1,1.4,4.2,2.8,5.3,3.8c1.2,1.1,2.9,3,4.6,4.9c4.9,5.6,7.9,9,12,9c1.6,0,3-0.5,4.2-1.5c0.6-0.4,1.2-0.9,1.6-1.6
			c1.8-2.6,1-5,0.3-6.8c-0.3-0.7-0.7-1.9-1.3-3.7c-3.4-9.7-19.1-23.1-19.3-23.2C400.2,432.5,397.1,431.4,394,431.4L394,431.4z"/>
	</g>
	<path class="st6" d="M419.8,456.8c0,0-5.2-16.7-7.9-20.7s-7.6-15.4-5.1-21.5c2.5-6.1,4.6-4.7,7.5-3.5c6.2,1.6,12.4,9.6,11.6,20.6
		C425.1,442.7,422.1,462.3,419.8,456.8z"/>
</g>
<g id="Layer_8" class="st3">
	<path class="st6" d="M432.5,487.1c-0.9,2.5-0.7,7.5-4.4,11.8c-3.7,4.4-16,14.6-26.3,14.1c-5-0.3-9.5-1.5-12.9-3.1
		c-3.1-1.4-5.3-3-6.2-4.1c-0.2-0.2-0.3-0.4-0.3-0.6c-0.2-0.4,0.6-1.3,1.9-2.6c1.4-1.4,3.5-3.1,6-5.1c7.8-6.2,13.7-15.7,22.9-17.5
		s17.4,2.3,19.4,3.2C434.5,484.3,433.4,484.6,432.5,487.1z"/>
	<path class="st6" d="M395,475.1c0.2,7.6-2.4,16.8-4.9,22.6c-2.5,2-4.6,3.7-6,5.1c-2.8-1.6-6-6.4-6.5-10.1c-0.6-4.9,0.7-28.3,4.6-30
		C386.1,461,394.8,463.6,395,475.1z"/>
	<path class="st6" d="M388.8,510c5.8,4.4,13.2,10.8,16.7,13.4c6,4.4,2.4,15.6-2.8,16.6c-4.6,0.9-12.4-2.8-14-4.9
		c-1.1-1.6-7.6-12.1-8.9-21.1c-0.4-3.1-0.3-5.9,1-8.2c0.2-0.4,0.9-0.3,1.8,0.1"/>
	<path class="st6" d="M355.2,527.4c1.7,0.8,6.9-9.6,6.5-17c-0.4-7.3-3.6-14.2-6.4-16c-2.8-1.8-5.1-1.2-5.7,1.2
		c-0.6,2.4,1,18.1,3.9,23.5C356.3,524.5,354,526.8,355.2,527.4z"/>
	<path class="st6" d="M354.7,538.9c0,0,0-6.1,1-10.8"/>
	<path class="st4" d="M397,490.8c-0.7,1.3,8-13.2,6.5-22.3s-4.1,13.6-4.1,13.6"/>
</g>
<g id="Layer_5">
	<path class="st7" d="M330.6,658.9c0,0-5.8-2.2-8.2-4.9"/>
	<path class="st7" d="M248.3,732.3c0,0,2.1-15.7,5.5-28.9c1.4-5.3,3-10.3,4.7-13.6"/>
	<line class="st7" x1="249.3" y1="690.1" x2="255.3" y2="695"/>
	<line class="st7" x1="255" y1="710" x2="263.1" y2="707.9"/>
	<path class="st7" d="M480.8,501.4c0,0,14.8-14.8,24.1-3.7"/>
	<path class="st8" d="M570.9,904.8c0,0-361.8-247.2-269.7-617.9c13.2-52.2,40.2-78.2,49.9-71.9c6.7,4,13.8,30.6-6.8,87.4
		c-31.1,84-156.6,285.5-199.9,379.7C86,803.7,77.5,899.1,142.9,939.5c167.2,81.6,372.9-229.1,417.4-287.7"/>
	<path class="st7" d="M412.4,587.7c41.9-50.5,82.4-104.9,96.7-123.7"/>
	<path class="st7" d="M366.7,568.6C281.2,459.9,200.8,297.1,250.1,99.1c13.2-52.2,40.2-78.2,49.9-71.9c6.7,4,13.8,30.6-6.8,87.4
		C262,198.5,136.5,400,93.2,494.3c-58.4,121.7-66.9,217.1-1.5,257.5c92.3,45,196.4-29.5,278.6-115.2"/>
	<path class="st7" d="M519.7,717c0,0-44.4-30.3-98.2-85.7"/>
	<path class="st7" d="M301.5,699.9c0,0,10.4,4.8,15.6,2.3c5.2-2.5,7.9-5.1,7.9-5.1"/>
	<path class="st7" d="M327.8,710.8c0,0-8.9-6.3-13.3-8.1"/>
	<g>
		<path d="M551.2,461.1c8.8,1.3,14.7,4.7,17.7,10.1c2.3,4.2,2.4,6,2.4,6.4c-1.1,1.1-5.7,2.4-8.5,3.2c-1.9,0.6-3.9,1.1-6,1.8
			c-2.2,0.8-5.5,1.2-9.2,1.2c-13.1,0-28-4.9-34.7-11.3c-0.6-0.6-1.1-1.1-1.6-1.6c2.2,1.2,4.6,1.2,6.4,1.2c1.7,0,4.2,0,8.6,0.4
			c0.9,0.1,1.8,0.1,2.6,0.1C541.2,472.7,547.9,465.7,551.2,461.1 M547.5,453.4c-0.2,0.4-0.4,0.7-0.7,1.1
			c-3.5,5.6-8.4,10.9-17.8,10.9c-0.7,0-1.4,0-2.1-0.1c-10.7-0.8-11.5,0.2-12.4-1.2c-0.8-1.4,0.5-2.3,0.7-6.7
			c-15.8,4.7-18.5,9.6-7.3,20.4c9,8.7,26.4,13.4,39.8,13.4c4.4,0,8.4-0.5,11.5-1.6c12.5-4.2,25.9-4.4,16.1-22
			C570,458.1,559.2,454.2,547.5,453.4L547.5,453.4z"/>
	</g>
	<g>
		<path d="M540.9,418.2c5.3,0,10.2,1.3,10.6,13.6c0.3,12.2-0.8,16.2-4,21.6c-0.2,0.4-0.4,0.7-0.7,1.1c-3.5,5.6-8.4,10.9-17.8,10.9
			c-0.7,0-1.4,0-2.1-0.1c-10.7-0.8-11.5,0.2-12.4-1.2c-0.8-1.4,0.5-2.3,0.7-6.7c0-0.3,0-0.6,0-0.9c0-5.1,3.3-18.9,10.2-28.5
			c7-9.6,14.6-9.9,14.6-9.9C540.3,418.2,540.6,418.2,540.9,418.2 M540.9,410.8c-0.3,0-0.7,0-1,0c0,0-0.1,0-0.1,0
			c-1.1,0-11.4,0.7-20.2,12.9c-7.6,10.5-11.6,25.8-11.6,32.8c0,0.2,0,0.3,0,0.4c0,0.1,0,0.1,0,0.2c0,1.3-0.2,2-0.4,2.8
			c-0.4,1.5-1.2,4.5,0.8,7.8c0,0,0,0,0,0.1c2.6,4.4,6.8,4.4,9.5,4.4c1.7,0,4.2,0,8.5,0.4c0.9,0.1,1.8,0.1,2.6,0.1
			c15.1,0,21.8-10.8,24-14.4c0.2-0.2,0.3-0.5,0.5-0.8l0.2-0.4c0,0,0,0,0-0.1c4.3-7.2,5.4-12.9,5-25.6c-0.2-7.8-2-13-5.6-16.5
			C548.8,410.8,543.1,410.8,540.9,410.8L540.9,410.8z"/>
	</g>
	<g>
		<path d="M501.3,413.4c0.2,0,0.5,0.5,1.2,1.2c6.9,7.6,6.2,18.1,6,27.1c-2.1-0.9-7.6-27.5-7.4-28
			C501.2,413.5,501.3,413.4,501.3,413.4 M501.3,406.1c-3.1,0-5.7,1.8-6.9,4.7c0,0,0,0,0,0.1c-0.9,2.1-1.2,2.9,2.5,18.4
			c3.5,14.9,5.2,17.6,8.9,19.2c0.9,0.4,1.9,0.6,2.8,0.6c1.4,0,2.8-0.4,4-1.2c2-1.3,3.3-3.5,3.3-6l0-1.5c0.3-9.5,0.6-21.3-7.9-30.7
			c-0.1-0.1-0.2-0.3-0.3-0.4C506.9,408.5,504.9,406.1,501.3,406.1L501.3,406.1z"/>
	</g>
	<g>
		<path d="M486.9,443.1c1.5,0,3,0.3,4.4,1c4.8,2.2,18.5,8.3,8.9,16.1c-5.7,3.9-8.8,5.2-11.5,5.2c-2.1,0-4.1-0.8-6.9-1.9
			c-4.9-1.8-10.6-5-6.2-12.7C478.8,445.3,483,443.1,486.9,443.1 M486.9,435.8L486.9,435.8c-7,0-13.5,4.1-17.6,11.4
			c-3.4,5.8-2.8,10.4-1.8,13.2c2.1,5.9,7.8,8.6,11.8,10l0.7,0.3c2.8,1,5.5,2,8.7,2c5.1,0,9.6-2.4,15.6-6.5l0.2-0.2l0.2-0.2
			c5.7-4.6,6.4-9.4,6-12.6c-1.1-8.8-11.4-13.5-16.3-15.7l-0.2-0.1C492,436.4,489.5,435.8,486.9,435.8L486.9,435.8z"/>
	</g>
	<path class="st9" d="M442.8,556.3c0-1.7,33.7-25.2,40.7-36.7c7-11.5,20.2-12.9,22.6-5.3c2.3,7.6,10.5,25.6-9.6,39.1
		c-15,9-20.7,13.4-37.6,11.4C442,562.7,442.8,558,442.8,556.3z"/>
	<g>
		<path d="M466,485.1c0.5,0,0.9,0.3,1.3,0.9c3.5,5.3-1.1,12.3-3.3,18c-2.2,5.7-10.5,27.1-13.2,29.6c-2.4,2.1-6.2,5.7-7.6,5.7
			c-0.2,0-0.4-0.1-0.4-0.3c-0.6-1.4,10.8-28.2,12.4-33C456.6,501.7,462.3,485.1,466,485.1 M466,477.8L466,477.8
			c-6.6,0-10.2,6.8-13,13.2c-2.1,4.7-3.9,10-4.8,12.7c-0.5,1.5-2.4,6.1-4.2,10.7c-1.9,4.7-4,10-5.7,14.3c-2.9,7.7-3.8,10.2-2.3,13.5
			c1.3,2.8,4,4.5,7.1,4.5c3.8,0,6.7-2.4,11.6-6.7c0.3-0.3,0.6-0.5,0.9-0.8c1.7-1.5,4.1-3.6,15.2-32.4c0.4-1,0.9-2.1,1.4-3.2
			c2.5-5.5,6.2-13.8,1.2-21.5C471.7,479.3,469,477.8,466,477.8L466,477.8z"/>
	</g>
	<g>
		<path d="M392.5,516.2c2.6,0,5.4,0.9,7.3,2.5c4.2,3.4,23.6,21.5,27.4,32.3c2.6,7.4,2.9,8,2.7,8c0,0-0.1,0-0.2,0
			c-0.1,0-0.2,0-0.4,0.3c-0.2,0.4-0.5,0.6-0.9,0.6c-3.4,0-13.7-14-19.6-19.4c-6.6-6-24.7-14.9-23.1-20.1
			C386.7,517.5,389.5,516.2,392.5,516.2 M392.5,508.9L392.5,508.9c-6.7,0-12,3.5-13.7,9.2c-2.7,8.7,6.7,14.9,16.7,21.5
			c3.3,2.2,6.7,4.5,8.5,6.1c1.9,1.7,4.7,4.9,7.3,7.9c8.2,9.3,12,13.4,17.2,13.4c2,0,3.9-0.7,5.3-2c0.8-0.5,1.5-1.2,2.1-2
			c2.2-3.2,1.2-6.1,0.2-8.8c-0.4-1.2-1.1-3-2.1-5.8c-4.6-13.2-25.9-32.6-29.7-35.6C401.3,510.4,396.9,508.9,392.5,508.9L392.5,508.9
			z"/>
	</g>
	<path class="st9" d="M433.1,546.7c0,0-8.2-26.3-12.4-32.6c-4.2-6.3-12-24.2-8.1-33.8c3.9-9.6,7.3-7.5,11.9-5.6
		c9.7,2.5,19.5,15.2,18.2,32.4C441.4,524.6,436.8,555.4,433.1,546.7z"/>
	<path class="st9" d="M453.1,594.4c-1.5,4-1,11.7-6.9,18.6c-5.9,6.9-25.1,23-41.5,22.2c-7.9-0.4-15-2.4-20.4-4.8
		c-4.9-2.2-8.3-4.6-9.7-6.5c-0.3-0.3-0.4-0.6-0.5-0.9c-0.3-0.6,0.9-2,3-4c2.2-2.1,5.6-4.9,9.4-8c12.3-9.8,21.6-24.8,36-27.6
		c14.4-2.8,27.4,3.6,30.6,5C456.2,590,454.5,590.4,453.1,594.4z"/>
	<path class="st9" d="M394.1,575.6c0.3,12-3.7,26.5-7.6,35.5c-3.9,3.1-7.2,5.9-9.4,8c-4.3-2.6-9.5-10.1-10.2-15.8
		c-1-7.8,1.1-44.5,7.2-47.2C380.1,553.4,393.8,557.4,394.1,575.6z"/>
	<path class="st9" d="M384.3,630.4c9.1,6.9,20.8,17,26.3,21c9.5,7,3.8,24.6-4.4,26.1c-7.3,1.4-19.5-4.4-22-7.8
		c-1.8-2.5-12-19.1-14-33.2c-0.7-4.8-0.4-9.3,1.5-12.9c0.3-0.6,1.4-0.5,2.9,0.2"/>
	<path class="st9" d="M331.5,657.8c2.6,1.2,10.9-15.1,10.3-26.7c-0.7-11.5-5.7-22.4-10.1-25.3c-4.4-2.9-8-1.9-9,1.9
		c-1,3.8,1.6,28.4,6.1,36.9C333.2,653.2,329.5,656.9,331.5,657.8z"/>
	<path class="st9" d="M330.6,676c0,0,0-9.6,1.5-17.1"/>
	<path class="st7" d="M397.2,600.3c-1.2,2,12.6-20.7,10.2-35.1c-2.4-14.4-6.5,21.4-6.5,21.4"/>
	<path class="st7" d="M330.6,658.9c0,0-5.8-2.2-8.2-4.9"/>
	<path class="st10" d="M431.4,562.2c2.2-1.8,3.9-12.2,6.6-19.4"/>
</g>
</svg>
