<?xml version="1.0" encoding="utf-8"?>
<!-- Generator: Adobe Illustrator 24.2.3, SVG Export Plug-In . SVG Version: 6.00 Build 0)  -->
<svg version="1.1" id="Layer_1" xmlns="http://www.w3.org/2000/svg" xmlns:xlink="http://www.w3.org/1999/xlink" x="0px" y="0px"
	 viewBox="0 0 792 612" style="enable-background:new 0 0 792 612;" xml:space="preserve">
<style type="text/css">
	.st0{fill:none;stroke:#000000;stroke-width:1.9259;stroke-linecap:round;stroke-miterlimit:10;}
	.st1{display:none;fill:none;stroke:#000000;stroke-width:1.9259;stroke-linecap:round;stroke-miterlimit:10;}
	.st2{fill:none;stroke:#000000;stroke-width:1.9259;stroke-miterlimit:10;}
	.st3{fill:none;stroke:#000000;stroke-width:2.2914;stroke-linecap:round;stroke-miterlimit:10;}
	.st4{font-family:'Georgia';}
	.st5{font-size:60px;}
	.st6{letter-spacing:13;}
</style>
<path class="st0" d="M401.9,348.6c0,0-1.5-0.6-2.2-1.3"/>
<path class="st0" d="M380.3,367.8c0,0,0.6-4.1,1.5-7.6c0.4-1.4,0.8-2.7,1.2-3.6"/>
<line class="st0" x1="380.6" y1="356.8" x2="382.1" y2="358.1"/>
<line class="st0" x1="382" y1="362" x2="384.2" y2="361.4"/>
<path class="st0" d="M441.4,307.1c0,0,3.9-3.9,6.3-1"/>
<path class="st1" d="M442.8,408.6c0,0-95.1-65-70.9-162.5c3.5-13.7,10.6-20.6,13.1-18.9c1.8,1,3.6,8.1-1.8,23
	c-8.2,22.1-41.2,75.1-52.6,99.8c-15.4,32-17.6,57.1-0.4,67.7c44,21.4,98.1-60.2,109.8-75.7"/>
<path class="st0" d="M423.4,329.8c11-13.3,21.7-27.6,25.4-32.5"/>
<path class="st0" d="M411.4,324.8c-22.5-28.6-43.6-71.4-30.7-123.5c3.5-13.7,10.6-20.6,13.1-18.9c1.8,1,3.6,8.1-1.8,23
	c-8.2,22.1-41.2,75.1-52.6,99.8c-15.4,32-17.6,57.1-0.4,67.7c24.3,11.8,51.6-7.8,73.2-30.3"/>
<path class="st0" d="M451.6,363.8c0,0-11.7-8-25.8-22.5"/>
<path class="st0" d="M394.3,359.3c0,0,2.7,1.3,4.1,0.6c1.4-0.7,2.1-1.4,2.1-1.4"/>
<path class="st0" d="M401.2,362.2c0,0-2.3-1.6-3.5-2.1"/>
<g>
	<path d="M459.9,296.6c2.3,0.3,3.9,1.2,4.7,2.7c0.6,1.1,0.6,1.6,0.6,1.7c-0.3,0.3-1.5,0.6-2.2,0.8c-0.5,0.1-1,0.3-1.6,0.5
		c-0.6,0.2-1.4,0.3-2.4,0.3c-3.5,0-7.4-1.3-9.1-3c-0.2-0.2-0.3-0.3-0.4-0.4c0.6,0.3,1.2,0.3,1.7,0.3c0.4,0,1.1,0,2.3,0.1
		c0.2,0,0.5,0,0.7,0C457.3,299.6,459.1,297.8,459.9,296.6 M458.9,294.5c-0.1,0.1-0.1,0.2-0.2,0.3c-0.9,1.5-2.2,2.9-4.7,2.9
		c-0.2,0-0.4,0-0.5,0c-2.8-0.2-3,0.1-3.3-0.3c-0.2-0.4,0.1-0.6,0.2-1.8c-4.2,1.2-4.9,2.5-1.9,5.4c2.4,2.3,6.9,3.5,10.5,3.5
		c1.2,0,2.2-0.1,3-0.4c3.3-1.1,6.8-1.2,4.2-5.8C464.9,295.8,462,294.7,458.9,294.5L458.9,294.5z"/>
</g>
<g>
	<path d="M457.2,285.3c1.4,0,2.7,0.3,2.8,3.6c0.1,3.2-0.2,4.3-1.1,5.7c-0.1,0.1-0.1,0.2-0.2,0.3c-0.9,1.5-2.2,2.9-4.7,2.9
		c-0.2,0-0.4,0-0.5,0c-2.8-0.2-3,0.1-3.3-0.3c-0.2-0.4,0.1-0.6,0.2-1.8c0-0.1,0-0.1,0-0.2c0-1.3,0.9-5,2.7-7.5
		c1.8-2.5,3.8-2.6,3.8-2.6C457.1,285.3,457.1,285.3,457.2,285.3 M457.2,283.3c-0.1,0-0.2,0-0.3,0c-0.3,0-3,0.2-5.4,3.4
		c-2,2.8-3.1,6.8-3.1,8.6c0,0,0,0.1,0,0.1c0,0.4-0.1,0.6-0.1,0.8c-0.1,0.4-0.3,1.2,0.2,2.1c0.7,1.2,1.8,1.2,2.5,1.2
		c0.4,0,1.1,0,2.2,0.1c0.2,0,0.5,0,0.7,0c4,0,5.7-2.8,6.3-3.8l0.1-0.2l0.1-0.1c1.1-1.9,1.4-3.4,1.3-6.7
		C461.8,285.2,460.2,283.3,457.2,283.3L457.2,283.3z"/>
</g>
<g>
	<path d="M446.8,284c0.1,0,0.1,0.1,0.3,0.3c1.8,2,1.6,4.8,1.6,7.1C448.2,291.2,446.7,284.2,446.8,284C446.8,284,446.8,284,446.8,284
		 M446.8,282.1c-0.8,0-1.5,0.5-1.8,1.2c-0.2,0.6-0.3,0.8,0.6,4.9c0.9,3.9,1.4,4.6,2.3,5c0.2,0.1,0.5,0.2,0.7,0.2
		c0.4,0,0.7-0.1,1-0.3c0.5-0.3,0.9-0.9,0.9-1.6l0-0.4c0.1-2.5,0.2-5.6-2.1-8.1l-0.1-0.1C448.3,282.7,447.7,282.1,446.8,282.1
		L446.8,282.1z"/>
</g>
<g>
	<path d="M443,291.8c0.4,0,0.8,0.1,1.2,0.3c1.3,0.6,4.9,2.2,2.3,4.2c-1.5,1-2.3,1.4-3,1.4c-0.6,0-1.1-0.2-1.8-0.5
		c-1.3-0.5-2.8-1.3-1.6-3.3C440.9,292.4,442,291.8,443,291.8 M443,289.9L443,289.9c-1.8,0-3.5,1.1-4.6,3c-0.9,1.5-0.7,2.7-0.5,3.5
		c0.6,1.6,2,2.3,3.1,2.6l0.2,0.1c0.7,0.3,1.4,0.5,2.3,0.5c1.3,0,2.5-0.6,4.1-1.7l0.1,0l0.1,0c1.5-1.2,1.7-2.5,1.6-3.3
		c-0.3-2.3-3-3.5-4.3-4.1C444.3,290,443.7,289.9,443,289.9L443,289.9z"/>
</g>
<path class="st2" d="M431.4,321.6c0-0.4,8.9-6.6,10.7-9.7c1.8-3,5.3-3.4,5.9-1.4c0.6,2,2.8,6.7-2.5,10.3c-3.9,2.4-5.4,3.5-9.9,3
	C431.2,323.3,431.4,322,431.4,321.6z"/>
<g>
	<path d="M437.5,302.9c0.1,0,0.2,0.1,0.3,0.2c0.9,1.4-0.3,3.2-0.9,4.7c-0.6,1.5-2.7,7.1-3.5,7.8c-0.6,0.6-1.6,1.5-2,1.5
		c-0.1,0-0.1,0-0.1-0.1c-0.2-0.4,2.8-7.4,3.3-8.7C435,307.2,436.5,302.9,437.5,302.9 M437.5,300.9L437.5,300.9
		c-1.5,0-2.8,1.1-4.7,6.8c-0.1,0.4-0.6,1.6-1.1,2.8c-2.4,6-2.5,6.3-2.1,7.3c0.3,0.7,1.1,1.2,1.9,1.2c1,0,1.8-0.6,3-1.8l0.2-0.2
		c0.5-0.4,1.1-1,4-8.5c0.1-0.3,0.2-0.6,0.4-0.8c0.7-1.4,1.6-3.6,0.3-5.6C439,301.3,438.3,300.9,437.5,300.9L437.5,300.9z"/>
</g>
<g>
	<path d="M418.2,311c0.7,0,1.4,0.2,1.9,0.6c1.1,0.9,6.2,5.7,7.2,8.5c0.7,1.9,0.8,2.1,0.7,2.1c0,0,0,0,0,0c0,0-0.1,0-0.1,0.1
		c0,0.1-0.1,0.1-0.2,0.1c-0.9,0-3.6-3.7-5.2-5.1c-1.7-1.6-6.5-3.9-6.1-5.3C416.7,311.4,417.4,311,418.2,311 M418.2,309.1
		L418.2,309.1c-1.8,0-3.2,0.9-3.6,2.4c-0.7,2.3,1.8,3.9,4.4,5.7c0.9,0.6,1.8,1.2,2.2,1.6c0.5,0.5,1.2,1.3,1.9,2.1
		c2.2,2.4,3.2,3.5,4.5,3.5c0.5,0,1-0.2,1.4-0.5c0.2-0.1,0.4-0.3,0.5-0.5c0.6-0.8,0.3-1.6,0.1-2.3c-0.1-0.3-0.3-0.8-0.5-1.5
		c-1.2-3.5-6.8-8.6-7.8-9.4C420.5,309.5,419.4,309.1,418.2,309.1L418.2,309.1z"/>
</g>
<path class="st2" d="M428.9,319.1c0,0-2.2-6.9-3.3-8.6c-1.1-1.7-3.2-6.4-2.1-8.9c1-2.5,1.9-2,3.1-1.5c2.6,0.7,5.1,4,4.8,8.5
	C431.1,313.2,429.8,321.4,428.9,319.1z"/>
<path class="st2" d="M434.1,331.6c-0.4,1-0.3,3.1-1.8,4.9c-1.5,1.8-6.6,6.1-10.9,5.8c-2.1-0.1-3.9-0.6-5.4-1.3
	c-1.3-0.6-2.2-1.2-2.5-1.7c-0.1-0.1-0.1-0.2-0.1-0.2c-0.1-0.2,0.2-0.5,0.8-1.1c0.6-0.6,1.5-1.3,2.5-2.1c3.2-2.6,5.7-6.5,9.5-7.2
	c3.8-0.7,7.2,0.9,8,1.3C434.9,330.4,434.5,330.6,434.1,331.6z"/>
<path class="st2" d="M418.6,326.7c0.1,3.2-1,7-2,9.3c-1,0.8-1.9,1.5-2.5,2.1c-1.1-0.7-2.5-2.7-2.7-4.2c-0.3-2,0.3-11.7,1.9-12.4
	C414.9,320.8,418.5,321.9,418.6,326.7z"/>
<path class="st2" d="M416,341.1c2.4,1.8,5.5,4.5,6.9,5.5c2.5,1.8,1,6.5-1.2,6.9c-1.9,0.4-5.1-1.2-5.8-2c-0.5-0.7-3.2-5-3.7-8.7
	c-0.2-1.3-0.1-2.4,0.4-3.4c0.1-0.2,0.4-0.1,0.8,0.1"/>
<path class="st2" d="M402.2,348.3c0.7,0.3,2.9-4,2.7-7c-0.2-3-1.5-5.9-2.7-6.6c-1.2-0.8-2.1-0.5-2.4,0.5s0.4,7.5,1.6,9.7
	C402.6,347.1,401.6,348,402.2,348.3z"/>
<path class="st2" d="M401.9,353.1c0,0,0-2.5,0.4-4.5"/>
<path class="st0" d="M419.4,333.2c-0.3,0.5,3.3-5.4,2.7-9.2c-0.6-3.8-1.7,5.6-1.7,5.6"/>
<path class="st0" d="M401.9,348.6c0,0-1.5-0.6-2.2-1.3"/>
<path class="st3" d="M428.4,323.1c0.6-0.5,1-3.2,1.7-5.1"/>
<text transform="matrix(1 0 0 1 83.2604 333.1848)" class="st4 st5 st6">arbor</text>
<text transform="matrix(1 0 0 1 506.5378 335.4526)" class="st4 st5 st6">flora</text>
</svg>
