<?xml version="1.0" encoding="utf-8"?>
<!-- Generator: Adobe Illustrator 24.2.3, SVG Export Plug-In . SVG Version: 6.00 Build 0)  -->
<svg version="1.1" xmlns="http://www.w3.org/2000/svg" xmlns:xlink="http://www.w3.org/1999/xlink" x="0px" y="0px"
	 viewBox="0 0 792 612" style="enable-background:new 0 0 792 612;" xml:space="preserve">
<style type="text/css">
	.st0{fill:#F9F3ED;}
	.st1{display:none;fill:none;stroke:#000000;stroke-width:1.9259;stroke-linecap:round;stroke-miterlimit:10;}
	.st2{fill:none;stroke:#34233F;stroke-width:2;stroke-linecap:round;stroke-miterlimit:10;}
	.st3{fill:#34233F;}
	.st4{fill:none;stroke:#34233F;stroke-width:2;stroke-miterlimit:10;}
	.st5{fill:#34233F;stroke:#34233F;}
	.st6{font-family:'Artigo-Light';}
	.st7{font-size:54px;}
	.st8{letter-spacing:6;}
	.st9{stroke:#34233F;stroke-width:2;stroke-linecap:round;stroke-miterlimit:10;}
</style>
<g id="Layer_2">
	<rect class="st0" width="792" height="612"/>
</g>
<g id="Layer_1">
	<path class="st1" d="M442.8,408.6c0,0-95.1-65-70.9-162.5c3.5-13.7,10.6-20.6,13.1-18.9c1.8,1,3.6,8.1-1.8,23
		c-8.2,22.1-41.2,75.1-52.6,99.8c-15.4,32-17.6,57.1-0.4,67.7c44,21.4,98.1-60.2,109.8-75.7"/>
	<g>
		<path class="st2" d="M399.1,372.1c0,0-1.5-0.6-2.2-1.3"/>
		<path class="st2" d="M377.4,391.3c0,0,0.6-4.1,1.5-7.6c0.4-1.4,0.8-2.7,1.2-3.6"/>
		<line class="st2" x1="377.7" y1="380.2" x2="379.3" y2="381.5"/>
		<line class="st2" x1="379.2" y1="385.5" x2="381.3" y2="384.9"/>
		<path class="st2" d="M438.6,330.6c0,0,3.9-3.9,6.3-1"/>
		<path class="st2" d="M420.6,353.3c11-13.3,21.7-27.6,25.4-32.5"/>
		<path class="st2" d="M408.6,348.3c-22.5-28.6-43.6-71.4-30.7-123.5c3.5-13.7,10.6-20.6,13.1-18.9c1.8,1,3.6,8.1-1.8,23
			C381,251,348,304,336.7,328.8c-15.4,32-17.6,57.1-0.4,67.7c24.3,11.8,51.6-7.8,73.2-30.3"/>
		<path class="st2" d="M448.8,387.3c0,0-11.7-8-25.8-22.5"/>
		<path class="st2" d="M391.4,382.8c0,0,2.7,1.3,4.1,0.6c1.4-0.7,2.1-1.4,2.1-1.4"/>
		<path class="st2" d="M398.4,385.7c0,0-2.3-1.6-3.5-2.1"/>
		<g>
			<path class="st3" d="M457.1,320.1c2.3,0.3,3.8,1.2,4.6,2.6c0.6,1,0.6,1.5,0.6,1.6c-0.3,0.3-1.4,0.6-2.2,0.8
				c-0.5,0.1-1,0.3-1.6,0.5c-0.6,0.2-1.4,0.3-2.4,0.3c-3.4,0-7.3-1.3-9.1-2.9c0,0-0.1-0.1-0.1-0.1c0.5,0.2,1,0.2,1.4,0.2
				c0.4,0,1.1,0,2.2,0.1c0.2,0,0.5,0,0.7,0C454.5,323.2,456.2,321.3,457.1,320.1 M456.1,318c-0.1,0.1-0.1,0.2-0.2,0.3
				c-0.9,1.5-2.2,2.9-4.7,2.9c-0.2,0-0.4,0-0.5,0c-2.8-0.2-3,0.1-3.3-0.3c-0.2-0.4,0.1-0.6,0.2-1.8c-4.2,1.2-4.9,2.5-1.9,5.4
				c2.4,2.3,6.9,3.5,10.5,3.5c1.2,0,2.2-0.1,3-0.4c3.3-1.1,6.8-1.2,4.2-5.8C462,319.3,459.2,318.2,456.1,318L456.1,318z"/>
		</g>
		<g>
			<path class="st3" d="M454.4,308.7c1.4,0,2.7,0.3,2.8,3.6c0.1,3.2-0.2,4.3-1.1,5.7c-0.1,0.1-0.1,0.2-0.2,0.3
				c-0.9,1.5-2.2,2.9-4.7,2.9c-0.2,0-0.4,0-0.5,0c-2.8-0.2-3,0.1-3.3-0.3c-0.2-0.4,0.1-0.6,0.2-1.8c0-0.1,0-0.1,0-0.2
				c0-1.3,0.9-5,2.7-7.5c1.8-2.5,3.8-2.6,3.8-2.6C454.2,308.7,454.3,308.7,454.4,308.7 M454.4,306.7c-0.1,0-0.2,0-0.3,0
				c-0.3,0-3.1,0.2-5.4,3.4c-2,2.8-3.1,6.8-3.1,8.7l0,0.1c0,0.4-0.1,0.5-0.1,0.8c-0.1,0.4-0.3,1.2,0.2,2.1c0.7,1.2,1.8,1.2,2.6,1.2
				c0.4,0,1.1,0,2.2,0.1c0.2,0,0.5,0,0.7,0c4,0,5.8-2.9,6.4-3.8l0.1-0.2l0.1-0.1c1.1-1.9,1.4-3.4,1.3-6.8
				C459.1,308.6,457.4,306.7,454.4,306.7L454.4,306.7z"/>
		</g>
		<g>
			<path class="st3" d="M444,307.5c0.1,0,0.1,0.1,0.3,0.3c1.8,2,1.6,4.8,1.6,7.1C445.3,314.7,443.9,307.7,444,307.5
				C443.9,307.5,444,307.5,444,307.5 M444,305.5C444,305.5,444,305.5,444,305.5c-0.8,0-1.6,0.5-1.9,1.3c-0.2,0.6-0.3,0.8,0.6,4.9
				c0.9,3.7,1.3,4.7,2.4,5.1c0.2,0.1,0.5,0.2,0.8,0.2c0.4,0,0.8-0.1,1.1-0.3c0.6-0.4,0.9-1,0.9-1.6l0-0.4c0.1-2.5,0.2-5.6-2.1-8.1
				l-0.1-0.1C445.5,306.1,444.9,305.5,444,305.5L444,305.5z"/>
		</g>
		<g>
			<path class="st3" d="M440.2,315.3c0.4,0,0.8,0.1,1.2,0.3c1.3,0.6,4.9,2.2,2.3,4.2c-1.5,1-2.3,1.4-3,1.4c-0.6,0-1.1-0.2-1.8-0.5
				c-1.3-0.5-2.8-1.3-1.6-3.3C438,315.9,439.2,315.3,440.2,315.3 M440.2,313.3L440.2,313.3c-1.9,0-3.6,1.1-4.7,3
				c-0.9,1.5-0.8,2.8-0.5,3.5c0.6,1.6,2.1,2.3,3.1,2.7l0.2,0.1c0.7,0.3,1.5,0.5,2.3,0.5c1.3,0,2.5-0.6,4.2-1.7l0.1,0l0.1-0.1
				c1.5-1.2,1.7-2.5,1.6-3.4c-0.3-2.4-3-3.6-4.3-4.2C441.5,313.5,440.9,313.3,440.2,313.3L440.2,313.3z"/>
		</g>
		<path class="st4" d="M428.6,345.1c0-0.4,8.9-6.6,10.7-9.7s5.3-3.4,5.9-1.4c0.6,2,2.8,6.7-2.5,10.3c-3.9,2.4-5.4,3.5-9.9,3
			C428.4,346.8,428.6,345.5,428.6,345.1z"/>
		<g>
			<path class="st3" d="M434.7,326.3c0.1,0,0.2,0.1,0.3,0.2c0.9,1.4-0.3,3.2-0.9,4.7c-0.6,1.5-2.7,7.1-3.5,7.8
				c-0.6,0.6-1.6,1.5-2,1.5c-0.1,0-0.1,0-0.1-0.1c-0.2-0.4,2.8-7.4,3.3-8.7C432.2,330.7,433.7,326.3,434.7,326.3 M434.7,324.3
				L434.7,324.3c-1.6,0-2.8,1.1-4.7,6.8c-0.1,0.4-0.6,1.6-1.1,2.8c-2.4,6-2.5,6.4-2.1,7.4c0.4,0.8,1.1,1.2,1.9,1.2
				c1,0,1.8-0.7,3.1-1.8l0.2-0.2c0.5-0.4,1.1-1,4-8.6c0.1-0.3,0.2-0.6,0.4-0.8c0.7-1.5,1.7-3.7,0.3-5.7
				C436.2,324.8,435.5,324.3,434.7,324.3L434.7,324.3z"/>
		</g>
		<g>
			<path class="st3" d="M415.4,334.5c0.7,0,1.4,0.2,1.9,0.6c1.1,0.9,6.2,5.7,7.2,8.5c0.7,1.9,0.8,2.1,0.7,2.1c0,0,0,0,0,0
				c0,0-0.1,0-0.1,0.1c0,0.1-0.1,0.1-0.2,0.1c-0.9,0-3.6-3.7-5.2-5.1c-1.7-1.6-6.5-3.9-6.1-5.3C413.8,334.9,414.6,334.5,415.4,334.5
				 M415.4,332.5L415.4,332.5c-1.8,0-3.2,1-3.7,2.5c-0.7,2.3,1.8,4,4.4,5.7c0.9,0.6,1.8,1.2,2.2,1.6c0.5,0.5,1.2,1.3,1.9,2.1
				c2.2,2.5,3.2,3.6,4.6,3.6c0.5,0,1.1-0.2,1.5-0.5c0.2-0.1,0.4-0.3,0.6-0.5c0.6-0.9,0.3-1.7,0.1-2.4c-0.1-0.3-0.3-0.8-0.5-1.5
				c-1.2-3.5-6.8-8.6-7.8-9.4C417.7,332.9,416.5,332.5,415.4,332.5L415.4,332.5z"/>
		</g>
		<path class="st4" d="M426,342.5c0,0-2.2-6.9-3.3-8.6c-1.1-1.7-3.2-6.4-2.1-8.9c1-2.5,1.9-2,3.1-1.5c2.6,0.7,5.1,4,4.8,8.5
			C428.2,336.7,427,344.8,426,342.5z"/>
		<path class="st4" d="M431.3,355.1c-0.4,1-0.3,3.1-1.8,4.9c-1.5,1.8-6.6,6.1-10.9,5.8c-2.1-0.1-3.9-0.6-5.4-1.3
			c-1.3-0.6-2.2-1.2-2.5-1.7c-0.1-0.1-0.1-0.2-0.1-0.2c-0.1-0.2,0.2-0.5,0.8-1.1c0.6-0.6,1.5-1.3,2.5-2.1c3.2-2.6,5.7-6.5,9.5-7.2
			c3.8-0.7,7.2,0.9,8,1.3C432.1,353.9,431.7,354,431.3,355.1z"/>
		<path class="st4" d="M415.8,350.1c0.1,3.2-1,7-2,9.3c-1,0.8-1.9,1.5-2.5,2.1c-1.1-0.7-2.5-2.7-2.7-4.2c-0.3-2,0.3-11.7,1.9-12.4
			C412.1,344.3,415.7,345.4,415.8,350.1z"/>
		<path class="st4" d="M413.2,364.6c2.4,1.8,5.5,4.5,6.9,5.5c2.5,1.8,1,6.5-1.2,6.9c-1.9,0.4-5.1-1.2-5.8-2c-0.5-0.7-3.2-5-3.7-8.7
			c-0.2-1.3-0.1-2.4,0.4-3.4c0.1-0.2,0.4-0.1,0.8,0.1"/>
		<path class="st4" d="M399.3,371.8c0.7,0.3,2.9-4,2.7-7c-0.2-3-1.5-5.9-2.7-6.6c-1.2-0.8-2.1-0.5-2.4,0.5s0.4,7.5,1.6,9.7
			S398.8,371.5,399.3,371.8z"/>
		<path class="st4" d="M399.1,376.5c0,0,0-2.5,0.4-4.5"/>
		<path class="st2" d="M416.6,356.6c-0.3,0.5,3.3-5.4,2.7-9.2c-0.6-3.8-1.7,5.6-1.7,5.6"/>
		<path class="st2" d="M399.1,372.1c0,0-1.5-0.6-2.2-1.3"/>
		<path class="st2" d="M425.6,346.6c0.6-0.5,1-3.2,1.7-5.1"/>
	</g>
	<text transform="matrix(1 0 0 1 105.5949 335.9381)" class="st5 st6 st7 st8">arbor</text>
	<text transform="matrix(1 0 0 1 528.8723 338.2059)" class="st5 st6 st7 st8">flora</text>
	<line class="st9" x1="99.3" y1="346.4" x2="308.2" y2="346.4"/>
	<line class="st9" x1="460" y1="346.4" x2="668.9" y2="346.4"/>
</g>
</svg>
