<?xml version="1.0" encoding="utf-8"?>
<!-- Generator: Adobe Illustrator 24.2.3, SVG Export Plug-In . SVG Version: 6.00 Build 0)  -->
<svg version="1.1" id="Layer_1" xmlns="http://www.w3.org/2000/svg" xmlns:xlink="http://www.w3.org/1999/xlink" x="0px" y="0px"
	 viewBox="0 0 792 235.6" style="enable-background:new 0 0 792 235.6;" xml:space="preserve">
<style type="text/css">
	.st0{display:none;fill:none;stroke:#000000;stroke-width:1.9259;stroke-linecap:round;stroke-miterlimit:10;}
	.st1{fill:none;stroke:#000000;stroke-width:2;stroke-linecap:round;stroke-miterlimit:10;}
	.st2{fill:none;stroke:#2A0014;stroke-width:2;stroke-linecap:round;stroke-miterlimit:10;}
	.st3{fill:#2A0014;}
	.st4{fill:none;stroke:#2A0014;stroke-width:2;stroke-miterlimit:10;}
	.st5{enable-background:new    ;}
</style>
<g id="Layer_1_1_">
	<path class="st0" d="M442.8,225c0,0-95.1-65-70.9-162.5c3.5-13.7,10.6-20.6,13.1-18.9c1.8,1,3.6,8.1-1.8,23
		c-8.2,22.1-41.2,75.1-52.6,99.8c-15.4,32-17.6,57.1-0.4,67.7c44,21.4,98.1-60.2,109.8-75.7"/>
	<g>
		<path class="st1" d="M399.1,188.5c0,0-1.5-0.6-2.2-1.3"/>
		<path class="st2" d="M377.4,207.7c0,0,0.6-4.1,1.5-7.5c0.4-1.4,0.8-2.7,1.2-3.6"/>
		<line class="st2" x1="377.7" y1="196.6" x2="379.3" y2="197.9"/>
		<line class="st2" x1="379.2" y1="201.9" x2="381.3" y2="201.3"/>
		<path class="st2" d="M438.6,147c0,0,3.9-3.9,6.3-1"/>
		<path class="st2" d="M420.6,169.7c11-13.3,21.7-27.6,25.4-32.5"/>
		<path class="st2" d="M408.6,164.7c-22.5-28.6-43.6-71.4-30.7-123.5c3.5-13.7,10.6-20.6,13.1-18.9c1.8,1,3.6,8.1-1.8,23
			c-8.2,22.1-41.2,75.1-52.5,99.9c-15.4,32-17.6,57.1-0.4,67.7c24.3,11.8,51.6-7.8,73.2-30.3"/>
		<path class="st2" d="M448.8,203.7c0,0-11.7-8-25.8-22.5"/>
		<path class="st2" d="M391.4,199.2c0,0,2.7,1.3,4.1,0.6c1.4-0.7,2.1-1.4,2.1-1.4"/>
		<path class="st2" d="M398.4,202.1c0,0-2.3-1.6-3.5-2.1"/>
		<g>
			<path class="st3" d="M457.1,136.5c2.3,0.3,3.8,1.2,4.6,2.6c0.6,1,0.6,1.5,0.6,1.6c-0.3,0.3-1.4,0.6-2.2,0.8
				c-0.5,0.1-1,0.3-1.6,0.5s-1.4,0.3-2.4,0.3c-3.4,0-7.3-1.3-9.1-2.9l-0.1-0.1c0.5,0.2,1,0.2,1.4,0.2s1.1,0,2.2,0.1
				c0.2,0,0.5,0,0.7,0C454.5,139.6,456.2,137.7,457.1,136.5 M456.1,134.4c-0.1,0.1-0.1,0.2-0.2,0.3c-0.9,1.5-2.2,2.9-4.7,2.9
				c-0.2,0-0.4,0-0.5,0c-2.8-0.2-3,0.1-3.3-0.3c-0.2-0.4,0.1-0.6,0.2-1.8c-4.2,1.2-4.9,2.5-1.9,5.4c2.4,2.3,6.9,3.5,10.5,3.5
				c1.2,0,2.2-0.1,3-0.4c3.3-1.1,6.8-1.2,4.2-5.8C462,135.7,459.2,134.6,456.1,134.4L456.1,134.4z"/>
		</g>
		<g>
			<path class="st3" d="M454.4,125.1c1.4,0,2.7,0.3,2.8,3.6c0.1,3.2-0.2,4.3-1.1,5.7c-0.1,0.1-0.1,0.2-0.2,0.3
				c-0.9,1.5-2.2,2.9-4.7,2.9c-0.2,0-0.4,0-0.5,0c-2.8-0.2-3,0.1-3.3-0.3c-0.2-0.4,0.1-0.6,0.2-1.8c0-0.1,0-0.1,0-0.2
				c0-1.3,0.9-5,2.7-7.5c1.8-2.5,3.8-2.6,3.8-2.6C454.2,125.1,454.3,125.1,454.4,125.1 M454.4,123.1c-0.1,0-0.2,0-0.3,0
				c-0.3,0-3.1,0.2-5.4,3.4c-2,2.8-3.1,6.8-3.1,8.7v0.1c0,0.4-0.1,0.5-0.1,0.8c-0.1,0.4-0.3,1.2,0.2,2.1c0.7,1.2,1.8,1.2,2.6,1.2
				c0.4,0,1.1,0,2.2,0.1c0.2,0,0.5,0,0.7,0c4,0,5.8-2.9,6.4-3.8l0.1-0.2l0.1-0.1c1.1-1.9,1.4-3.4,1.3-6.8
				C459.1,125,457.4,123.1,454.4,123.1L454.4,123.1z"/>
		</g>
		<g>
			<path class="st3" d="M444,123.9c0.1,0,0.1,0.1,0.3,0.3c1.8,2,1.6,4.8,1.6,7.1C445.3,131.1,443.9,124.1,444,123.9
				C443.9,123.9,444,123.9,444,123.9 M444,121.9L444,121.9c-0.8,0-1.6,0.5-1.9,1.3c-0.2,0.6-0.3,0.8,0.6,4.9
				c0.9,3.7,1.3,4.7,2.4,5.1c0.2,0.1,0.5,0.2,0.8,0.2c0.4,0,0.8-0.1,1.1-0.3c0.6-0.4,0.9-1,0.9-1.6v-0.4c0.1-2.5,0.2-5.6-2.1-8.1
				l-0.1-0.1C445.5,122.5,444.9,121.9,444,121.9L444,121.9z"/>
		</g>
		<g>
			<path class="st3" d="M440.2,131.7c0.4,0,0.8,0.1,1.2,0.3c1.3,0.6,4.9,2.2,2.3,4.2c-1.5,1-2.3,1.4-3,1.4c-0.6,0-1.1-0.2-1.8-0.5
				c-1.3-0.5-2.8-1.3-1.6-3.3C438,132.3,439.2,131.7,440.2,131.7 M440.2,129.7L440.2,129.7c-1.9,0-3.6,1.1-4.7,3
				c-0.9,1.5-0.8,2.8-0.5,3.5c0.6,1.6,2.1,2.3,3.1,2.7l0.2,0.1c0.7,0.3,1.5,0.5,2.3,0.5c1.3,0,2.5-0.6,4.2-1.7h0.1l0.1-0.1
				c1.5-1.2,1.7-2.5,1.6-3.4c-0.3-2.4-3-3.6-4.3-4.2C441.5,129.9,440.9,129.7,440.2,129.7L440.2,129.7z"/>
		</g>
		<path class="st4" d="M428.6,161.5c0-0.4,8.9-6.6,10.7-9.7s5.3-3.4,5.9-1.4s2.8,6.7-2.5,10.3c-3.9,2.4-5.4,3.5-9.9,3
			C428.4,163.2,428.6,161.9,428.6,161.5z"/>
		<g>
			<path class="st3" d="M434.7,142.7c0.1,0,0.2,0.1,0.3,0.2c0.9,1.4-0.3,3.2-0.9,4.7s-2.7,7.1-3.5,7.8c-0.6,0.6-1.6,1.5-2,1.5
				c-0.1,0-0.1,0-0.1-0.1c-0.2-0.4,2.8-7.4,3.3-8.7C432.2,147.1,433.7,142.7,434.7,142.7 M434.7,140.7L434.7,140.7
				c-1.6,0-2.8,1.1-4.7,6.8c-0.1,0.4-0.6,1.6-1.1,2.8c-2.4,6-2.5,6.4-2.1,7.4c0.4,0.8,1.1,1.2,1.9,1.2c1,0,1.8-0.7,3.1-1.8l0.2-0.2
				c0.5-0.4,1.1-1,4-8.6c0.1-0.3,0.2-0.6,0.4-0.8c0.7-1.5,1.7-3.7,0.3-5.7C436.2,141.2,435.5,140.7,434.7,140.7L434.7,140.7z"/>
		</g>
		<g>
			<path class="st3" d="M415.4,150.9c0.7,0,1.4,0.2,1.9,0.6c1.1,0.9,6.2,5.7,7.2,8.5c0.7,1.9,0.8,2.1,0.7,2.1l0,0c0,0-0.1,0-0.1,0.1
				s-0.1,0.1-0.2,0.1c-0.9,0-3.6-3.7-5.2-5.1c-1.7-1.6-6.5-3.9-6.1-5.3C413.8,151.3,414.6,150.9,415.4,150.9 M415.4,148.9
				L415.4,148.9c-1.8,0-3.2,1-3.7,2.5c-0.7,2.3,1.8,4,4.4,5.7c0.9,0.6,1.8,1.2,2.2,1.6c0.5,0.5,1.2,1.3,1.9,2.1
				c2.2,2.5,3.2,3.6,4.6,3.6c0.5,0,1.1-0.2,1.5-0.5c0.2-0.1,0.4-0.3,0.6-0.5c0.6-0.9,0.3-1.7,0.1-2.4c-0.1-0.3-0.3-0.8-0.5-1.5
				c-1.2-3.5-6.8-8.6-7.8-9.4C417.7,149.3,416.5,148.9,415.4,148.9L415.4,148.9z"/>
		</g>
		<path class="st4" d="M426,158.9c0,0-2.2-6.9-3.3-8.6c-1.1-1.7-3.2-6.4-2.1-8.9c1-2.5,1.9-2,3.1-1.5c2.6,0.7,5.1,4,4.8,8.5
			C428.2,153.1,427,161.2,426,158.9z"/>
		<path class="st4" d="M431.3,171.5c-0.4,1-0.3,3.1-1.8,4.9s-6.6,6.1-10.9,5.8c-2.1-0.1-3.9-0.6-5.4-1.3c-1.3-0.6-2.2-1.2-2.5-1.7
			c-0.1-0.1-0.1-0.2-0.1-0.2c-0.1-0.2,0.2-0.5,0.8-1.1c0.6-0.6,1.5-1.3,2.5-2.1c3.2-2.6,5.7-6.5,9.5-7.2s7.2,0.9,8,1.3
			C432.1,170.3,431.7,170.4,431.3,171.5z"/>
		<path class="st4" d="M415.8,166.5c0.1,3.2-1,7-2,9.3c-1,0.8-1.9,1.5-2.5,2.1c-1.1-0.7-2.5-2.7-2.7-4.2c-0.3-2,0.3-11.7,1.9-12.4
			C412.1,160.7,415.7,161.8,415.8,166.5z"/>
		<path class="st4" d="M413.2,181c2.4,1.8,5.5,4.5,6.9,5.5c2.5,1.8,1,6.5-1.2,6.9c-1.9,0.4-5.1-1.2-5.8-2c-0.5-0.7-3.2-5-3.7-8.7
			c-0.2-1.3-0.1-2.4,0.4-3.4c0.1-0.2,0.4-0.1,0.8,0.1"/>
		<path class="st4" d="M399.3,188.2c0.7,0.3,2.9-4,2.7-7c-0.2-3-1.5-5.9-2.7-6.6c-1.2-0.8-2.1-0.5-2.4,0.5s0.4,7.5,1.6,9.7
			S398.8,187.9,399.3,188.2z"/>
		<path class="st4" d="M399.1,192.9c0,0,0-2.5,0.4-4.5"/>
		<path class="st2" d="M416.6,173c-0.3,0.5,3.3-5.4,2.7-9.2c-0.6-3.8-1.7,5.6-1.7,5.6"/>
		<path class="st2" d="M399.1,188.5c0,0-1.5-0.6-2.2-1.3"/>
		<path class="st2" d="M425.6,163c0.6-0.5,1-3.2,1.7-5.1"/>
	</g>
	<g class="st5">
		<path class="st3" d="M120.9,148c0.2,0.6,0.5,1,0.9,1.2c0.5,0.3,1.2,0.4,2.2,0.5c0,1-0.1,1.9-0.3,2.5c-0.9,0.1-1.9,0.3-3,0.6
			c-1.1,0.3-2.1,0.7-2.9,1.1c-0.4-0.2-0.8-0.5-1-1c-0.2-0.5-0.3-1.2-0.3-2.2c0-0.6,0-1.1,0.1-1.4c-0.4,1-1.1,1.9-1.9,2.6
			c-1.4,1.2-3.3,1.8-5.7,1.8c-2.2,0-4-0.5-5.2-1.5c-1.2-1-1.8-2.4-1.8-4.2c0-2.1,0.8-3.8,2.3-5.1c1.5-1.3,3.3-2.2,5.2-2.7
			c1.9-0.5,4-1,6.3-1.3c0-2.2-0.1-3.7-0.2-4.6c-0.1-0.8-0.5-1.6-0.9-2.1c-0.9-1.1-2-1.6-3.3-1.6c-1.6,0-2.8,0.7-3.5,2
			c-0.7,1.3-1.1,2.8-1.2,4.3c-0.5,0-1,0-1.6-0.1c-0.6-0.1-1-0.2-1.2-0.3c0-0.4,0.1-1,0.1-1.8c0-1.6-0.1-2.9-0.3-4
			c1.4-0.8,3-1.3,4.6-1.8c1.7-0.4,3.2-0.6,4.5-0.6c2.4,0,4.4,0.7,5.7,2.1c0.9,0.9,1.5,2,1.8,3.4c0.3,1.4,0.5,3.4,0.5,5.9v5.9
			C120.7,146.7,120.8,147.5,120.9,148z M115.8,141.2c-1.7,0.2-3.2,0.5-4.3,0.8c-1.2,0.3-2.2,0.9-3,1.7c-0.8,0.8-1.3,1.9-1.3,3.4
			c0,1.3,0.3,2.2,0.9,2.9c0.6,0.6,1.4,1,2.3,1c0.9,0,1.7-0.3,2.5-0.8s1.5-1.4,2-2.5c0.5-1.2,0.8-2.6,0.8-4.3V141.2z"/>
		<path class="st3" d="M157.7,130c-0.3,1.7-0.4,3.8-0.4,6.4c-1,0.3-2,0.5-3.1,0.5c-0.1-1.6-0.3-2.7-0.8-3.3
			c-0.5-0.6-1.1-0.9-1.9-0.9c-0.6,0-1.3,0.4-2.1,1.1c-0.7,0.7-1.3,1.6-1.8,2.8c-0.5,1.2-0.7,2.4-0.7,3.8v5.2c0,1.5,0.2,2.7,0.5,3.5
			c0.3,0.8,0.8,1.4,1.5,1.7c0.7,0.3,1.6,0.5,2.8,0.6c0.2,0.5,0.3,1.3,0.3,2.3c-1.7-0.1-3.9-0.2-6.8-0.2c-3.3,0-5.7,0.1-7.1,0.2
			c0-1,0.1-1.8,0.3-2.3c1.4-0.1,2.4-0.4,2.9-1.1c0.5-0.6,0.8-1.8,0.8-3.6v-10.7c0-0.9-0.1-1.7-0.3-2.2c-0.2-0.5-0.6-0.9-1.2-1.2
			c-0.6-0.3-1.4-0.4-2.6-0.5c0-0.8,0.2-1.5,0.5-2c1.1-0.1,2.4-0.3,3.8-0.6c1.4-0.4,2.6-0.8,3.4-1.2c0.8,0.3,1.2,1,1.2,2.4
			c0,1.2-0.1,2.4-0.3,3.4c-0.2,1.1-0.3,1.7-0.4,1.9c0.1-0.2,0.2-0.6,0.4-1.3c0.2-0.6,0.4-1.2,0.7-1.5c1.8-2.9,4-4.4,6.5-4.4
			C155.4,128.7,156.6,129.1,157.7,130z"/>
		<path class="st3" d="M193.6,131.1c1.7,2,2.6,5,2.6,9c0,2.5-0.6,4.8-1.7,6.9c-1.1,2.1-2.7,3.7-4.8,5c-2.1,1.2-4.4,1.8-7,1.8
			c-2.3,0-4.3-0.3-6.1-1c-1.8-0.7-3.2-1.6-4.4-2.7c0.4-0.5,0.7-1.3,0.9-2.3c0.2-1,0.3-2.5,0.3-4.6v-21c0-0.9-0.1-1.7-0.3-2.2
			c-0.2-0.5-0.6-0.9-1.1-1.2c-0.6-0.3-1.5-0.4-2.6-0.4c0-0.8,0.2-1.5,0.5-2c0.9,0,2.2-0.2,3.8-0.6c1.7-0.4,2.8-0.8,3.4-1.2
			c0.8,0.3,1.2,1,1.2,2.2V131c0,0.7-0.1,1.5-0.2,2.3l0.6-1.1c0.6-1,1.5-1.9,2.9-2.7c1.4-0.8,2.9-1.3,4.5-1.3
			C189.3,128.2,191.8,129.2,193.6,131.1z M186.6,150.5c1.2-0.6,2.2-1.7,3-3.3c0.8-1.6,1.2-3.7,1.2-6.3c0-2.2-0.3-3.9-1-5.3
			s-1.4-2.4-2.3-3c-0.9-0.6-1.8-0.9-2.7-0.9c-1.8,0-3.3,0.8-4.6,2.5c-1.3,1.7-1.9,4.3-1.9,7.8v7.6c0.7,0.6,1.4,1.1,2.1,1.4
			c0.7,0.3,1.6,0.5,2.6,0.5C184.2,151.4,185.4,151.1,186.6,150.5z"/>
		<path class="st3" d="M216.3,152.3c-1.8-1.1-3.3-2.6-4.3-4.5c-1-1.9-1.5-4.2-1.5-6.8c0-2.4,0.5-4.6,1.6-6.6c1-2,2.5-3.5,4.3-4.6
			c1.9-1.1,4-1.7,6.3-1.7c3.8,0,6.8,1.2,8.9,3.5c2.2,2.3,3.3,5.5,3.3,9.3c0,2.4-0.5,4.6-1.5,6.6c-1,1.9-2.5,3.5-4.3,4.6
			c-1.9,1.1-4,1.7-6.3,1.7C220.2,153.9,218.1,153.4,216.3,152.3z M227.9,148.7c1.1-1.7,1.6-4.1,1.6-7c0-2.2-0.3-4.1-1-5.7
			c-0.7-1.7-1.6-2.9-2.7-3.8c-1.1-0.9-2.3-1.3-3.7-1.3c-2,0-3.6,0.8-4.6,2.5c-1.1,1.7-1.6,3.9-1.6,6.6c0,3.6,0.6,6.4,1.9,8.4
			c1.3,2,3,3,5.3,3C225.2,151.3,226.8,150.5,227.9,148.7z"/>
		<path class="st3" d="M268.6,130c-0.3,1.7-0.4,3.8-0.4,6.4c-1,0.3-2,0.5-3.1,0.5c-0.1-1.6-0.3-2.7-0.8-3.3
			c-0.5-0.6-1.1-0.9-1.9-0.9c-0.6,0-1.3,0.4-2.1,1.1c-0.7,0.7-1.3,1.6-1.8,2.8c-0.5,1.2-0.7,2.4-0.7,3.8v5.2c0,1.5,0.2,2.7,0.5,3.5
			c0.3,0.8,0.8,1.4,1.5,1.7c0.7,0.3,1.6,0.5,2.8,0.6c0.2,0.5,0.3,1.3,0.3,2.3c-1.7-0.1-3.9-0.2-6.8-0.2c-3.3,0-5.7,0.1-7.1,0.2
			c0-1,0.1-1.8,0.3-2.3c1.4-0.1,2.4-0.4,2.9-1.1c0.5-0.6,0.8-1.8,0.8-3.6v-10.7c0-0.9-0.1-1.7-0.3-2.2c-0.2-0.5-0.6-0.9-1.2-1.2
			c-0.6-0.3-1.4-0.4-2.6-0.5c0-0.8,0.2-1.5,0.5-2c1.1-0.1,2.4-0.3,3.8-0.6c1.4-0.4,2.6-0.8,3.4-1.2c0.8,0.3,1.2,1,1.2,2.4
			c0,1.2-0.1,2.4-0.3,3.4c-0.2,1.1-0.3,1.7-0.4,1.9c0.1-0.2,0.2-0.6,0.4-1.3c0.2-0.6,0.4-1.2,0.7-1.5c1.8-2.9,4-4.4,6.5-4.4
			C266.2,128.7,267.5,129.1,268.6,130z"/>
	</g>
	<g class="st5">
		<path class="st3" d="M563.9,153.6c-1.9-0.1-3.9-0.2-6.1-0.2c-2.3,0-4.4,0.1-6.2,0.2c0-1,0.1-1.7,0.3-2.3c1.4,0,2.4-0.3,2.9-1
			c0.5-0.7,0.8-1.9,0.8-3.7v-23.7c0-1.7-0.5-3-1.6-3.9c-1.1-0.9-2.6-1.3-4.5-1.3c-2.1,0-3.6,0.6-4.6,1.8s-1.5,3.2-1.5,5.9v3.8h5.5
			c0,1-0.2,1.9-0.5,2.4c-1.8,0-3.5,0.2-5,0.6v13.2c0,1.5,0.1,2.7,0.3,3.5c0.2,0.8,0.6,1.4,1.1,1.7c0.5,0.3,1.3,0.5,2.3,0.6
			c0.2,0.5,0.3,1.3,0.3,2.3c-1.7-0.1-3.8-0.2-6.3-0.2c-3,0-5.2,0.1-6.6,0.2c0-1,0.1-1.8,0.3-2.3c1.4-0.1,2.4-0.4,2.9-1.1
			c0.5-0.6,0.8-1.8,0.8-3.6v-14.5c-1.4-0.3-2.8-0.4-4.3-0.4c0-1,0.3-1.8,0.8-2.4h3.6v-2.2c0-2.7,0.6-5,1.8-6.8
			c1.2-1.8,2.8-3.2,4.7-4.1c1.9-0.9,4-1.4,6.1-1.4c1,0,2,0.1,3,0.3c1,0.2,1.8,0.5,2.5,0.8c1-0.3,1.9-0.6,2.7-1.2
			c0.8,0.3,1.2,1,1.2,2.2v29.7c0,1.8,0.2,3,0.7,3.7c0.5,0.7,1.3,1,2.5,1C563.8,151.9,563.9,152.6,563.9,153.6z"/>
		<path class="st3" d="M583.7,152.3c-1.8-1.1-3.3-2.6-4.3-4.5c-1-1.9-1.5-4.2-1.5-6.8c0-2.4,0.5-4.6,1.6-6.6c1-2,2.5-3.5,4.3-4.6
			c1.9-1.1,4-1.7,6.3-1.7c3.8,0,6.8,1.2,8.9,3.5c2.2,2.3,3.3,5.5,3.3,9.3c0,2.4-0.5,4.6-1.5,6.6c-1,1.9-2.5,3.5-4.3,4.6
			c-1.9,1.1-4,1.7-6.3,1.7C587.7,153.9,585.6,153.4,583.7,152.3z M595.3,148.7c1.1-1.7,1.6-4.1,1.6-7c0-2.2-0.3-4.1-1-5.7
			c-0.7-1.7-1.6-2.9-2.7-3.8c-1.1-0.9-2.3-1.3-3.7-1.3c-2,0-3.6,0.8-4.6,2.5c-1.1,1.7-1.6,3.9-1.6,6.6c0,3.6,0.6,6.4,1.9,8.4
			c1.3,2,3,3,5.3,3C592.7,151.3,594.3,150.5,595.3,148.7z"/>
		<path class="st3" d="M636.1,130c-0.3,1.7-0.4,3.8-0.4,6.4c-1,0.3-2,0.5-3.1,0.5c-0.1-1.6-0.3-2.7-0.8-3.3
			c-0.5-0.6-1.1-0.9-1.9-0.9c-0.6,0-1.3,0.4-2.1,1.1c-0.7,0.7-1.3,1.6-1.8,2.8c-0.5,1.2-0.7,2.4-0.7,3.8v5.2c0,1.5,0.2,2.7,0.5,3.5
			c0.3,0.8,0.8,1.4,1.5,1.7c0.7,0.3,1.6,0.5,2.8,0.6c0.2,0.5,0.3,1.3,0.3,2.3c-1.7-0.1-3.9-0.2-6.8-0.2c-3.3,0-5.7,0.1-7.1,0.2
			c0-1,0.1-1.8,0.3-2.3c1.4-0.1,2.4-0.4,2.9-1.1c0.5-0.6,0.8-1.8,0.8-3.6v-10.7c0-0.9-0.1-1.7-0.3-2.2c-0.2-0.5-0.6-0.9-1.2-1.2
			c-0.6-0.3-1.4-0.4-2.6-0.5c0-0.8,0.2-1.5,0.5-2c1.1-0.1,2.4-0.3,3.8-0.6c1.4-0.4,2.6-0.8,3.4-1.2c0.8,0.3,1.2,1,1.2,2.4
			c0,1.2-0.1,2.4-0.3,3.4c-0.2,1.1-0.3,1.7-0.4,1.9c0.1-0.2,0.2-0.6,0.4-1.3c0.2-0.6,0.5-1.2,0.7-1.5c1.8-2.9,4-4.4,6.5-4.4
			C633.7,128.7,634.9,129.1,636.1,130z"/>
		<path class="st3" d="M668.8,148c0.2,0.6,0.5,1,0.9,1.2c0.5,0.3,1.2,0.4,2.2,0.5c0,1-0.1,1.9-0.3,2.5c-0.9,0.1-1.9,0.3-3,0.6
			c-1.1,0.3-2.1,0.7-2.9,1.1c-0.4-0.2-0.8-0.5-1-1c-0.2-0.5-0.3-1.2-0.3-2.2c0-0.6,0-1.1,0.1-1.4c-0.4,1-1.1,1.9-1.9,2.6
			c-1.4,1.2-3.3,1.8-5.7,1.8c-2.2,0-4-0.5-5.2-1.5c-1.2-1-1.8-2.4-1.8-4.2c0-2.1,0.8-3.8,2.3-5.1c1.5-1.3,3.3-2.2,5.2-2.7
			c1.9-0.5,4-1,6.3-1.3c0-2.2-0.1-3.7-0.2-4.6c-0.1-0.8-0.5-1.6-0.9-2.1c-0.9-1.1-2-1.6-3.3-1.6c-1.6,0-2.8,0.7-3.5,2
			c-0.7,1.3-1.1,2.8-1.2,4.3c-0.5,0-1,0-1.6-0.1c-0.6-0.1-1-0.2-1.2-0.3c0-0.4,0.1-1,0.1-1.8c0-1.6-0.1-2.9-0.3-4
			c1.4-0.8,3-1.3,4.6-1.8c1.7-0.4,3.2-0.6,4.5-0.6c2.4,0,4.4,0.7,5.7,2.1c0.9,0.9,1.5,2,1.8,3.4c0.3,1.4,0.5,3.4,0.5,5.9v5.9
			C668.5,146.7,668.6,147.5,668.8,148z M663.7,141.2c-1.7,0.2-3.2,0.5-4.3,0.8c-1.2,0.3-2.2,0.9-3,1.7c-0.8,0.8-1.3,1.9-1.3,3.4
			c0,1.3,0.3,2.2,0.9,2.9c0.6,0.6,1.4,1,2.3,1c0.9,0,1.7-0.3,2.5-0.8c0.8-0.5,1.5-1.4,2-2.5c0.5-1.2,0.8-2.6,0.8-4.3V141.2z"/>
	</g>
	<line class="st2" x1="99.3" y1="162.8" x2="308.2" y2="162.8"/>
	<line class="st2" x1="460" y1="162.8" x2="668.9" y2="162.8"/>
</g>
</svg>
