<?xml version="1.0" encoding="utf-8"?>
<!-- Generator: Adobe Illustrator 24.2.3, SVG Export Plug-In . SVG Version: 6.00 Build 0)  -->
<svg version="1.1" id="Layer_1" xmlns="http://www.w3.org/2000/svg" xmlns:xlink="http://www.w3.org/1999/xlink" x="0px" y="0px"
	 viewBox="0 0 792 612" style="enable-background:new 0 0 792 612;" xml:space="preserve">
<style type="text/css">
	.st0{fill:none;stroke:#000000;stroke-width:2;stroke-linecap:round;stroke-miterlimit:10;}
	.st1{display:none;fill:none;stroke:#000000;stroke-width:1.9259;stroke-linecap:round;stroke-miterlimit:10;}
	.st2{fill:none;stroke:#000000;stroke-width:2;stroke-miterlimit:10;}
	.st3{enable-background:new    ;}
</style>
<g id="Layer_2_1_">
	<rect class="st0" width="792" height="612"/>
</g>
<g id="Layer_1_1_">
	<path class="st1" d="M442.8,408.6c0,0-95.1-65-70.9-162.5c3.5-13.7,10.6-20.6,13.1-18.9c1.8,1,3.6,8.1-1.8,23
		c-8.2,22.1-41.2,75.1-52.6,99.8c-15.4,32-17.6,57.1-0.4,67.7c44,21.4,98.1-60.2,109.8-75.7"/>
	<g>
		<path class="st0" d="M399.1,372.1c0,0-1.5-0.6-2.2-1.3"/>
		<path class="st0" d="M377.4,391.3c0,0,0.6-4.1,1.5-7.6c0.4-1.4,0.8-2.7,1.2-3.6"/>
		<line class="st0" x1="377.7" y1="380.2" x2="379.3" y2="381.5"/>
		<line class="st0" x1="379.2" y1="385.5" x2="381.3" y2="384.9"/>
		<path class="st0" d="M438.6,330.6c0,0,3.9-3.9,6.3-1"/>
		<path class="st0" d="M420.6,353.3c11-13.3,21.7-27.6,25.4-32.5"/>
		<path class="st0" d="M408.6,348.3c-22.5-28.6-43.6-71.4-30.7-123.5c3.5-13.7,10.6-20.6,13.1-18.9c1.8,1,3.6,8.1-1.8,23
			C381,251,348,304,336.7,328.8c-15.4,32-17.6,57.1-0.4,67.7c24.3,11.8,51.6-7.8,73.2-30.3"/>
		<path class="st0" d="M448.8,387.3c0,0-11.7-8-25.8-22.5"/>
		<path class="st0" d="M391.4,382.8c0,0,2.7,1.3,4.1,0.6c1.4-0.7,2.1-1.4,2.1-1.4"/>
		<path class="st0" d="M398.4,385.7c0,0-2.3-1.6-3.5-2.1"/>
		<g>
			<path d="M457.1,320.1c2.3,0.3,3.8,1.2,4.6,2.6c0.6,1,0.6,1.5,0.6,1.6c-0.3,0.3-1.4,0.6-2.2,0.8c-0.5,0.1-1,0.3-1.6,0.5
				s-1.4,0.3-2.4,0.3c-3.4,0-7.3-1.3-9.1-2.9l-0.1-0.1c0.5,0.2,1,0.2,1.4,0.2s1.1,0,2.2,0.1c0.2,0,0.5,0,0.7,0
				C454.5,323.2,456.2,321.3,457.1,320.1 M456.1,318c-0.1,0.1-0.1,0.2-0.2,0.3c-0.9,1.5-2.2,2.9-4.7,2.9c-0.2,0-0.4,0-0.5,0
				c-2.8-0.2-3,0.1-3.3-0.3c-0.2-0.4,0.1-0.6,0.2-1.8c-4.2,1.2-4.9,2.5-1.9,5.4c2.4,2.3,6.9,3.5,10.5,3.5c1.2,0,2.2-0.1,3-0.4
				c3.3-1.1,6.8-1.2,4.2-5.8C462,319.3,459.2,318.2,456.1,318L456.1,318z"/>
		</g>
		<g>
			<path d="M454.4,308.7c1.4,0,2.7,0.3,2.8,3.6c0.1,3.2-0.2,4.3-1.1,5.7c-0.1,0.1-0.1,0.2-0.2,0.3c-0.9,1.5-2.2,2.9-4.7,2.9
				c-0.2,0-0.4,0-0.5,0c-2.8-0.2-3,0.1-3.3-0.3c-0.2-0.4,0.1-0.6,0.2-1.8c0-0.1,0-0.1,0-0.2c0-1.3,0.9-5,2.7-7.5
				c1.8-2.5,3.8-2.6,3.8-2.6C454.2,308.7,454.3,308.7,454.4,308.7 M454.4,306.7c-0.1,0-0.2,0-0.3,0c-0.3,0-3.1,0.2-5.4,3.4
				c-2,2.8-3.1,6.8-3.1,8.7v0.1c0,0.4-0.1,0.5-0.1,0.8c-0.1,0.4-0.3,1.2,0.2,2.1c0.7,1.2,1.8,1.2,2.6,1.2c0.4,0,1.1,0,2.2,0.1
				c0.2,0,0.5,0,0.7,0c4,0,5.8-2.9,6.4-3.8l0.1-0.2l0.1-0.1c1.1-1.9,1.4-3.4,1.3-6.8C459.1,308.6,457.4,306.7,454.4,306.7
				L454.4,306.7z"/>
		</g>
		<g>
			<path d="M444,307.5c0.1,0,0.1,0.1,0.3,0.3c1.8,2,1.6,4.8,1.6,7.1C445.3,314.7,443.9,307.7,444,307.5
				C443.9,307.5,444,307.5,444,307.5 M444,305.5L444,305.5c-0.8,0-1.6,0.5-1.9,1.3c-0.2,0.6-0.3,0.8,0.6,4.9
				c0.9,3.7,1.3,4.7,2.4,5.1c0.2,0.1,0.5,0.2,0.8,0.2c0.4,0,0.8-0.1,1.1-0.3c0.6-0.4,0.9-1,0.9-1.6v-0.4c0.1-2.5,0.2-5.6-2.1-8.1
				l-0.1-0.1C445.5,306.1,444.9,305.5,444,305.5L444,305.5z"/>
		</g>
		<g>
			<path d="M440.2,315.3c0.4,0,0.8,0.1,1.2,0.3c1.3,0.6,4.9,2.2,2.3,4.2c-1.5,1-2.3,1.4-3,1.4c-0.6,0-1.1-0.2-1.8-0.5
				c-1.3-0.5-2.8-1.3-1.6-3.3C438,315.9,439.2,315.3,440.2,315.3 M440.2,313.3L440.2,313.3c-1.9,0-3.6,1.1-4.7,3
				c-0.9,1.5-0.8,2.8-0.5,3.5c0.6,1.6,2.1,2.3,3.1,2.7l0.2,0.1c0.7,0.3,1.5,0.5,2.3,0.5c1.3,0,2.5-0.6,4.2-1.7h0.1l0.1-0.1
				c1.5-1.2,1.7-2.5,1.6-3.4c-0.3-2.4-3-3.6-4.3-4.2C441.5,313.5,440.9,313.3,440.2,313.3L440.2,313.3z"/>
		</g>
		<path class="st2" d="M428.6,345.1c0-0.4,8.9-6.6,10.7-9.7s5.3-3.4,5.9-1.4s2.8,6.7-2.5,10.3c-3.9,2.4-5.4,3.5-9.9,3
			C428.4,346.8,428.6,345.5,428.6,345.1z"/>
		<g>
			<path d="M434.7,326.3c0.1,0,0.2,0.1,0.3,0.2c0.9,1.4-0.3,3.2-0.9,4.7s-2.7,7.1-3.5,7.8c-0.6,0.6-1.6,1.5-2,1.5
				c-0.1,0-0.1,0-0.1-0.1c-0.2-0.4,2.8-7.4,3.3-8.7C432.2,330.7,433.7,326.3,434.7,326.3 M434.7,324.3L434.7,324.3
				c-1.6,0-2.8,1.1-4.7,6.8c-0.1,0.4-0.6,1.6-1.1,2.8c-2.4,6-2.5,6.4-2.1,7.4c0.4,0.8,1.1,1.2,1.9,1.2c1,0,1.8-0.7,3.1-1.8l0.2-0.2
				c0.5-0.4,1.1-1,4-8.6c0.1-0.3,0.2-0.6,0.4-0.8c0.7-1.5,1.7-3.7,0.3-5.7C436.2,324.8,435.5,324.3,434.7,324.3L434.7,324.3z"/>
		</g>
		<g>
			<path d="M415.4,334.5c0.7,0,1.4,0.2,1.9,0.6c1.1,0.9,6.2,5.7,7.2,8.5c0.7,1.9,0.8,2.1,0.7,2.1l0,0c0,0-0.1,0-0.1,0.1
				s-0.1,0.1-0.2,0.1c-0.9,0-3.6-3.7-5.2-5.1c-1.7-1.6-6.5-3.9-6.1-5.3C413.8,334.9,414.6,334.5,415.4,334.5 M415.4,332.5
				L415.4,332.5c-1.8,0-3.2,1-3.7,2.5c-0.7,2.3,1.8,4,4.4,5.7c0.9,0.6,1.8,1.2,2.2,1.6c0.5,0.5,1.2,1.3,1.9,2.1
				c2.2,2.5,3.2,3.6,4.6,3.6c0.5,0,1.1-0.2,1.5-0.5c0.2-0.1,0.4-0.3,0.6-0.5c0.6-0.9,0.3-1.7,0.1-2.4c-0.1-0.3-0.3-0.8-0.5-1.5
				c-1.2-3.5-6.8-8.6-7.8-9.4C417.7,332.9,416.5,332.5,415.4,332.5L415.4,332.5z"/>
		</g>
		<path class="st2" d="M426,342.5c0,0-2.2-6.9-3.3-8.6c-1.1-1.7-3.2-6.4-2.1-8.9c1-2.5,1.9-2,3.1-1.5c2.6,0.7,5.1,4,4.8,8.5
			C428.2,336.7,427,344.8,426,342.5z"/>
		<path class="st2" d="M431.3,355.1c-0.4,1-0.3,3.1-1.8,4.9s-6.6,6.1-10.9,5.8c-2.1-0.1-3.9-0.6-5.4-1.3c-1.3-0.6-2.2-1.2-2.5-1.7
			c-0.1-0.1-0.1-0.2-0.1-0.2c-0.1-0.2,0.2-0.5,0.8-1.1c0.6-0.6,1.5-1.3,2.5-2.1c3.2-2.6,5.7-6.5,9.5-7.2s7.2,0.9,8,1.3
			C432.1,353.9,431.7,354,431.3,355.1z"/>
		<path class="st2" d="M415.8,350.1c0.1,3.2-1,7-2,9.3c-1,0.8-1.9,1.5-2.5,2.1c-1.1-0.7-2.5-2.7-2.7-4.2c-0.3-2,0.3-11.7,1.9-12.4
			C412.1,344.3,415.7,345.4,415.8,350.1z"/>
		<path class="st2" d="M413.2,364.6c2.4,1.8,5.5,4.5,6.9,5.5c2.5,1.8,1,6.5-1.2,6.9c-1.9,0.4-5.1-1.2-5.8-2c-0.5-0.7-3.2-5-3.7-8.7
			c-0.2-1.3-0.1-2.4,0.4-3.4c0.1-0.2,0.4-0.1,0.8,0.1"/>
		<path class="st2" d="M399.3,371.8c0.7,0.3,2.9-4,2.7-7c-0.2-3-1.5-5.9-2.7-6.6c-1.2-0.8-2.1-0.5-2.4,0.5s0.4,7.5,1.6,9.7
			S398.8,371.5,399.3,371.8z"/>
		<path class="st2" d="M399.1,376.5c0,0,0-2.5,0.4-4.5"/>
		<path class="st0" d="M416.6,356.6c-0.3,0.5,3.3-5.4,2.7-9.2c-0.6-3.8-1.7,5.6-1.7,5.6"/>
		<path class="st0" d="M399.1,372.1c0,0-1.5-0.6-2.2-1.3"/>
		<path class="st0" d="M425.6,346.6c0.6-0.5,1-3.2,1.7-5.1"/>
	</g>
	<g class="st3">
		<path d="M120.9,331.7c0.2,0.6,0.5,1,0.9,1.2c0.5,0.3,1.2,0.4,2.2,0.5c0,1-0.1,1.9-0.3,2.5c-0.9,0.1-1.9,0.3-3,0.6
			c-1.1,0.3-2.1,0.7-2.9,1.1c-0.4-0.2-0.8-0.5-1-1c-0.2-0.5-0.3-1.2-0.3-2.2c0-0.6,0-1.1,0.1-1.4c-0.4,1-1.1,1.9-1.9,2.6
			c-1.4,1.2-3.3,1.8-5.7,1.8c-2.2,0-4-0.5-5.2-1.5c-1.2-1-1.8-2.4-1.8-4.2c0-2.1,0.8-3.8,2.3-5.1c1.5-1.3,3.3-2.2,5.2-2.7
			c1.9-0.5,4-1,6.3-1.3c0-2.2-0.1-3.7-0.2-4.6c-0.1-0.8-0.5-1.6-0.9-2.1c-0.9-1.1-2-1.6-3.3-1.6c-1.6,0-2.8,0.7-3.5,2
			c-0.7,1.3-1.1,2.8-1.2,4.3c-0.5,0-1,0-1.6-0.1c-0.6-0.1-1-0.2-1.2-0.3c0-0.4,0.1-1,0.1-1.8c0-1.6-0.1-2.9-0.3-4
			c1.4-0.8,3-1.3,4.6-1.8c1.7-0.4,3.2-0.6,4.5-0.6c2.4,0,4.4,0.7,5.7,2.1c0.9,0.9,1.5,2,1.8,3.4c0.3,1.4,0.5,3.4,0.5,5.9v5.9
			C120.7,330.3,120.8,331.1,120.9,331.7z M115.8,324.8c-1.7,0.2-3.2,0.5-4.3,0.8c-1.2,0.3-2.2,0.9-3,1.7c-0.8,0.8-1.3,1.9-1.3,3.4
			c0,1.3,0.3,2.2,0.9,2.9c0.6,0.6,1.4,1,2.3,1c0.9,0,1.7-0.3,2.5-0.8s1.5-1.4,2-2.5c0.5-1.2,0.8-2.6,0.8-4.3V324.8z"/>
		<path d="M157.7,313.6c-0.3,1.7-0.4,3.8-0.4,6.4c-1,0.3-2,0.5-3.1,0.5c-0.1-1.6-0.3-2.7-0.8-3.3c-0.5-0.6-1.1-0.9-1.9-0.9
			c-0.6,0-1.3,0.4-2.1,1.1c-0.7,0.7-1.3,1.6-1.8,2.8c-0.5,1.2-0.7,2.4-0.7,3.8v5.2c0,1.5,0.2,2.7,0.5,3.5c0.3,0.8,0.8,1.4,1.5,1.7
			c0.7,0.3,1.6,0.5,2.8,0.6c0.2,0.5,0.3,1.3,0.3,2.3c-1.7-0.1-3.9-0.2-6.8-0.2c-3.3,0-5.7,0.1-7.1,0.2c0-1,0.1-1.8,0.3-2.3
			c1.4-0.1,2.4-0.4,2.9-1.1c0.5-0.6,0.8-1.8,0.8-3.6v-10.7c0-0.9-0.1-1.7-0.3-2.2c-0.2-0.5-0.6-0.9-1.2-1.2
			c-0.6-0.3-1.4-0.4-2.6-0.5c0-0.8,0.2-1.5,0.5-2c1.1-0.1,2.4-0.3,3.8-0.6c1.4-0.4,2.6-0.8,3.4-1.2c0.8,0.3,1.2,1,1.2,2.4
			c0,1.2-0.1,2.4-0.3,3.4c-0.2,1.1-0.3,1.7-0.4,1.9c0.1-0.2,0.2-0.6,0.4-1.3c0.2-0.6,0.4-1.2,0.7-1.5c1.8-2.9,4-4.4,6.5-4.4
			C155.4,312.3,156.6,312.8,157.7,313.6z"/>
		<path d="M193.6,314.8c1.7,2,2.6,5,2.6,9c0,2.5-0.6,4.8-1.7,6.9c-1.1,2.1-2.7,3.7-4.8,5c-2.1,1.2-4.4,1.8-7,1.8
			c-2.3,0-4.3-0.3-6.1-1c-1.8-0.7-3.2-1.6-4.4-2.7c0.4-0.5,0.7-1.3,0.9-2.3c0.2-1,0.3-2.5,0.3-4.6v-21c0-0.9-0.1-1.7-0.3-2.2
			c-0.2-0.5-0.6-0.9-1.1-1.2c-0.6-0.3-1.5-0.4-2.6-0.4c0-0.8,0.2-1.5,0.5-2c0.9,0,2.2-0.2,3.8-0.6c1.7-0.4,2.8-0.8,3.4-1.2
			c0.8,0.3,1.2,1,1.2,2.2v14.1c0,0.7-0.1,1.5-0.2,2.3l0.6-1.1c0.6-1,1.5-1.9,2.9-2.7c1.4-0.8,2.9-1.3,4.5-1.3
			C189.3,311.8,191.8,312.8,193.6,314.8z M186.6,334.1c1.2-0.6,2.2-1.7,3-3.3c0.8-1.6,1.2-3.7,1.2-6.3c0-2.2-0.3-3.9-1-5.3
			s-1.4-2.4-2.3-3c-0.9-0.6-1.8-0.9-2.7-0.9c-1.8,0-3.3,0.8-4.6,2.5c-1.3,1.7-1.9,4.3-1.9,7.8v7.6c0.7,0.6,1.4,1.1,2.1,1.4
			c0.7,0.3,1.6,0.5,2.6,0.5C184.2,335.1,185.4,334.7,186.6,334.1z"/>
		<path d="M216.3,335.9c-1.8-1.1-3.3-2.6-4.3-4.5c-1-1.9-1.5-4.2-1.5-6.8c0-2.4,0.5-4.6,1.6-6.6c1-2,2.5-3.5,4.3-4.6
			c1.9-1.1,4-1.7,6.3-1.7c3.8,0,6.8,1.2,8.9,3.5c2.2,2.3,3.3,5.5,3.3,9.3c0,2.4-0.5,4.6-1.5,6.6c-1,1.9-2.5,3.5-4.3,4.6
			c-1.9,1.1-4,1.7-6.3,1.7C220.2,337.5,218.1,337,216.3,335.9z M227.9,332.4c1.1-1.7,1.6-4.1,1.6-7c0-2.2-0.3-4.1-1-5.7
			c-0.7-1.7-1.6-2.9-2.7-3.8c-1.1-0.9-2.3-1.3-3.7-1.3c-2,0-3.6,0.8-4.6,2.5c-1.1,1.7-1.6,3.9-1.6,6.6c0,3.6,0.6,6.4,1.9,8.4
			c1.3,2,3,3,5.3,3C225.2,334.9,226.8,334.1,227.9,332.4z"/>
		<path d="M268.6,313.6c-0.3,1.7-0.4,3.8-0.4,6.4c-1,0.3-2,0.5-3.1,0.5c-0.1-1.6-0.3-2.7-0.8-3.3c-0.5-0.6-1.1-0.9-1.9-0.9
			c-0.6,0-1.3,0.4-2.1,1.1c-0.7,0.7-1.3,1.6-1.8,2.8c-0.5,1.2-0.7,2.4-0.7,3.8v5.2c0,1.5,0.2,2.7,0.5,3.5c0.3,0.8,0.8,1.4,1.5,1.7
			c0.7,0.3,1.6,0.5,2.8,0.6c0.2,0.5,0.3,1.3,0.3,2.3c-1.7-0.1-3.9-0.2-6.8-0.2c-3.3,0-5.7,0.1-7.1,0.2c0-1,0.1-1.8,0.3-2.3
			c1.4-0.1,2.4-0.4,2.9-1.1c0.5-0.6,0.8-1.8,0.8-3.6v-10.7c0-0.9-0.1-1.7-0.3-2.2c-0.2-0.5-0.6-0.9-1.2-1.2
			c-0.6-0.3-1.4-0.4-2.6-0.5c0-0.8,0.2-1.5,0.5-2c1.1-0.1,2.4-0.3,3.8-0.6c1.4-0.4,2.6-0.8,3.4-1.2c0.8,0.3,1.2,1,1.2,2.4
			c0,1.2-0.1,2.4-0.3,3.4c-0.2,1.1-0.3,1.7-0.4,1.9c0.1-0.2,0.2-0.6,0.4-1.3c0.2-0.6,0.4-1.2,0.7-1.5c1.8-2.9,4-4.4,6.5-4.4
			C266.2,312.3,267.5,312.8,268.6,313.6z"/>
	</g>
	<g class="st3">
		<path d="M560.5,337.2c-1.9-0.1-3.9-0.2-6.1-0.2c-2.3,0-4.4,0.1-6.2,0.2c0-1,0.1-1.7,0.3-2.3c1.4,0,2.4-0.3,2.9-1
			c0.5-0.7,0.8-1.9,0.8-3.7v-23.7c0-1.7-0.5-3-1.6-3.9c-1.1-0.9-2.6-1.3-4.5-1.3c-2.1,0-3.6,0.6-4.6,1.8s-1.5,3.2-1.5,5.9v3.8h5.5
			c0,1-0.2,1.9-0.5,2.4c-1.8,0-3.5,0.2-5,0.6v13.2c0,1.5,0.1,2.7,0.3,3.5c0.2,0.8,0.6,1.4,1.1,1.7c0.5,0.3,1.3,0.5,2.3,0.6
			c0.2,0.5,0.3,1.3,0.3,2.3c-1.7-0.1-3.8-0.2-6.3-0.2c-3,0-5.2,0.1-6.6,0.2c0-1,0.1-1.8,0.3-2.3c1.4-0.1,2.4-0.4,2.9-1.1
			c0.5-0.6,0.8-1.8,0.8-3.6v-14.5c-1.4-0.3-2.8-0.4-4.3-0.4c0-1,0.3-1.8,0.8-2.4h3.6v-2.2c0-2.7,0.6-5,1.8-6.8
			c1.2-1.8,2.8-3.2,4.7-4.1c1.9-0.9,4-1.4,6.1-1.4c1,0,2,0.1,3,0.3c1,0.2,1.8,0.5,2.5,0.8c1-0.3,1.9-0.6,2.7-1.2
			c0.8,0.3,1.2,1,1.2,2.2v29.7c0,1.8,0.2,3,0.7,3.7c0.5,0.7,1.3,1,2.5,1C560.4,335.5,560.5,336.3,560.5,337.2z"/>
		<path d="M580.3,335.9c-1.8-1.1-3.3-2.6-4.3-4.5c-1-1.9-1.5-4.2-1.5-6.8c0-2.4,0.5-4.6,1.6-6.6c1-2,2.5-3.5,4.3-4.6
			c1.9-1.1,4-1.7,6.3-1.7c3.8,0,6.8,1.2,8.9,3.5c2.2,2.3,3.3,5.5,3.3,9.3c0,2.4-0.5,4.6-1.5,6.6c-1,1.9-2.5,3.5-4.3,4.6
			c-1.9,1.1-4,1.7-6.3,1.7C584.3,337.5,582.1,337,580.3,335.9z M591.9,332.4c1.1-1.7,1.6-4.1,1.6-7c0-2.2-0.3-4.1-1-5.7
			c-0.7-1.7-1.6-2.9-2.7-3.8c-1.1-0.9-2.3-1.3-3.7-1.3c-2,0-3.6,0.8-4.6,2.5c-1.1,1.7-1.6,3.9-1.6,6.6c0,3.6,0.6,6.4,1.9,8.4
			c1.3,2,3,3,5.3,3C589.2,334.9,590.8,334.1,591.9,332.4z"/>
		<path d="M632.6,313.6c-0.3,1.7-0.4,3.8-0.4,6.4c-1,0.3-2,0.5-3.1,0.5c-0.1-1.6-0.3-2.7-0.8-3.3c-0.5-0.6-1.1-0.9-1.9-0.9
			c-0.6,0-1.3,0.4-2.1,1.1c-0.7,0.7-1.3,1.6-1.8,2.8c-0.5,1.2-0.7,2.4-0.7,3.8v5.2c0,1.5,0.2,2.7,0.5,3.5c0.3,0.8,0.8,1.4,1.5,1.7
			c0.7,0.3,1.6,0.5,2.8,0.6c0.2,0.5,0.3,1.3,0.3,2.3c-1.7-0.1-3.9-0.2-6.8-0.2c-3.3,0-5.7,0.1-7.1,0.2c0-1,0.1-1.8,0.3-2.3
			c1.4-0.1,2.4-0.4,2.9-1.1c0.5-0.6,0.8-1.8,0.8-3.6v-10.7c0-0.9-0.1-1.7-0.3-2.2c-0.2-0.5-0.6-0.9-1.2-1.2
			c-0.6-0.3-1.4-0.4-2.6-0.5c0-0.8,0.2-1.5,0.5-2c1.1-0.1,2.4-0.3,3.8-0.6c1.4-0.4,2.6-0.8,3.4-1.2c0.8,0.3,1.2,1,1.2,2.4
			c0,1.2-0.1,2.4-0.3,3.4c-0.2,1.1-0.3,1.7-0.4,1.9c0.1-0.2,0.2-0.6,0.4-1.3c0.2-0.6,0.5-1.2,0.7-1.5c1.8-2.9,4-4.4,6.5-4.4
			C630.3,312.3,631.5,312.8,632.6,313.6z"/>
		<path d="M665.3,331.7c0.2,0.6,0.5,1,0.9,1.2c0.5,0.3,1.2,0.4,2.2,0.5c0,1-0.1,1.9-0.3,2.5c-0.9,0.1-1.9,0.3-3,0.6
			c-1.1,0.3-2.1,0.7-2.9,1.1c-0.4-0.2-0.8-0.5-1-1c-0.2-0.5-0.3-1.2-0.3-2.2c0-0.6,0-1.1,0.1-1.4c-0.4,1-1.1,1.9-1.9,2.6
			c-1.4,1.2-3.3,1.8-5.7,1.8c-2.2,0-4-0.5-5.2-1.5c-1.2-1-1.8-2.4-1.8-4.2c0-2.1,0.8-3.8,2.3-5.1c1.5-1.3,3.3-2.2,5.2-2.7
			c1.9-0.5,4-1,6.3-1.3c0-2.2-0.1-3.7-0.2-4.6c-0.1-0.8-0.5-1.6-0.9-2.1c-0.9-1.1-2-1.6-3.3-1.6c-1.6,0-2.8,0.7-3.5,2
			c-0.7,1.3-1.1,2.8-1.2,4.3c-0.5,0-1,0-1.6-0.1c-0.6-0.1-1-0.2-1.2-0.3c0-0.4,0.1-1,0.1-1.8c0-1.6-0.1-2.9-0.3-4
			c1.4-0.8,3-1.3,4.6-1.8c1.7-0.4,3.2-0.6,4.5-0.6c2.4,0,4.4,0.7,5.7,2.1c0.9,0.9,1.5,2,1.8,3.4c0.3,1.4,0.5,3.4,0.5,5.9v5.9
			C665.1,330.3,665.1,331.1,665.3,331.7z M660.2,324.8c-1.7,0.2-3.2,0.5-4.3,0.8c-1.2,0.3-2.2,0.9-3,1.7c-0.8,0.8-1.3,1.9-1.3,3.4
			c0,1.3,0.3,2.2,0.9,2.9c0.6,0.6,1.4,1,2.3,1c0.9,0,1.7-0.3,2.5-0.8c0.8-0.5,1.5-1.4,2-2.5c0.5-1.2,0.8-2.6,0.8-4.3V324.8z"/>
	</g>
	<line class="st0" x1="99.3" y1="346.4" x2="308.2" y2="346.4"/>
	<line class="st0" x1="460" y1="346.4" x2="668.9" y2="346.4"/>
</g>
</svg>
